<?xml version="1.0" encoding="UTF-8" standalone="no"?>
<svg
   xmlns:dc="http://purl.org/dc/elements/1.1/"
   xmlns:cc="http://creativecommons.org/ns#"
   xmlns:rdf="http://www.w3.org/1999/02/22-rdf-syntax-ns#"
   xmlns:svg="http://www.w3.org/2000/svg"
   xmlns="http://www.w3.org/2000/svg"
   xmlns:sodipodi="http://sodipodi.sourceforge.net/DTD/sodipodi-0.dtd"
   xmlns:inkscape="http://www.inkscape.org/namespaces/inkscape"
   width="255.49684"
   height="256.77136"
   viewBox="0 0 67.600205 67.937424"
   version="1.1"
   id="svg8"
   inkscape:version="1.0.1 (3bc2e813f5, 2020-09-07)"
   sodipodi:docname="hedgedoc_logo_color.svg"
   inkscape:export-filename="/home/tilman/Coding/codimd/codimd.github.io/static/images/hedgedoc_logo_color.png"
   inkscape:export-xdpi="96"
   inkscape:export-ydpi="96">
  <defs
     id="defs2">
    <clipPath
       clipPathUnits="userSpaceOnUse"
       id="clipPath871">
      <path
         d="M 0,0 H 841.89 V 297.638 H 0 Z"
         id="path869" />
    </clipPath>
    <linearGradient
       x1="0"
       y1="0"
       x2="1"
       y2="0"
       gradientUnits="userSpaceOnUse"
       gradientTransform="matrix(107.67888,171.65486,171.65486,-107.67888,1080.9185,-340.37369)"
       spreadMethod="pad"
       id="linearGradient895">
      <stop
         style="stop-opacity:1;stop-color:#fbca83"
         offset="0"
         id="stop889" />
      <stop
         style="stop-opacity:1;stop-color:#fbca83"
         offset="0.02532213"
         id="stop891" />
      <stop
         style="stop-opacity:1;stop-color:#e18539"
         offset="1"
         id="stop893" />
    </linearGradient>
    <clipPath
       clipPathUnits="userSpaceOnUse"
       id="clipPath905">
      <path
         d="M 0,0 H 841.89 V 297.638 H 0 Z"
         id="path903" />
    </clipPath>
    <clipPath
       clipPathUnits="userSpaceOnUse"
       id="clipPath945">
      <path
         d="M 0,0 H 841.89 V 297.638 H 0 Z"
         id="path943" />
    </clipPath>
    <clipPath
       clipPathUnits="userSpaceOnUse"
       id="clipPath1056">
      <path
         d="M 0,0 H 841.89 V 297.638 H 0 Z"
         id="path1054" />
    </clipPath>
    <clipPath
       clipPathUnits="userSpaceOnUse"
       id="clipPath1092">
      <path
         d="M 0,0 H 841.89 V 297.638 H 0 Z"
         id="path1090" />
    </clipPath>
    <linearGradient
       x1="0"
       y1="0"
       x2="1"
       y2="0"
       gradientUnits="userSpaceOnUse"
       gradientTransform="matrix(29.349644,46.787346,46.787346,-29.349644,794.56982,-2.9291687)"
       spreadMethod="pad"
       id="linearGradient1116">
      <stop
         style="stop-opacity:1;stop-color:#fbca83"
         offset="0"
         id="stop1110" />
      <stop
         style="stop-opacity:1;stop-color:#fbca83"
         offset="0.02532213"
         id="stop1112" />
      <stop
         style="stop-opacity:1;stop-color:#e18539"
         offset="1"
         id="stop1114" />
    </linearGradient>
    <clipPath
       clipPathUnits="userSpaceOnUse"
       id="clipPath1126">
      <path
         d="M 0,0 H 841.89 V 297.638 H 0 Z"
         id="path1124" />
    </clipPath>
    <linearGradient
       id="_Linear1"
       x1="0"
       y1="0"
       x2="1"
       y2="0"
       gradientUnits="userSpaceOnUse"
       gradientTransform="matrix(200,-420,420,200,660,1340)">
      <stop
         offset="0"
         style="stop-color:rgb(252,202,140);stop-opacity:1"
         id="stop928" />
      <stop
         offset="1"
         style="stop-color:rgb(220,160,85);stop-opacity:1"
         id="stop930" />
    </linearGradient>
    <clipPath
       clipPathUnits="userSpaceOnUse"
       id="clipPath897">
      <path
         d="M 0,0 H 841.89 V 297.638 H 0 Z"
         id="path895" />
    </clipPath>
    <clipPath
       clipPathUnits="userSpaceOnUse"
       id="clipPath933">
      <path
         d="M 0,0 H 841.89 V 297.638 H 0 Z"
         id="path931" />
    </clipPath>
    <clipPath
       clipPathUnits="userSpaceOnUse"
       id="clipPath967">
      <path
         d="M 0,0 H 841.89 V 297.638 H 0 Z"
         id="path965" />
    </clipPath>
    <mask
       maskUnits="userSpaceOnUse"
       id="mask1076">
      <rect
         style="fill:#ffffff;fill-opacity:1;fill-rule:evenodd;stroke:none;stroke-width:0.453003;stroke-miterlimit:4;stroke-dasharray:none;stroke-opacity:1;paint-order:stroke fill markers"
         id="rect1078"
         width="130.80998"
         height="256.72946"
         x="414.46735"
         y="-266.40646"
         transform="scale(1,-1)" />
    </mask>
    <mask
       maskUnits="userSpaceOnUse"
       id="mask1082">
      <rect
         style="fill:#ffffff;fill-opacity:1;fill-rule:evenodd;stroke:none;stroke-width:0.453003;stroke-miterlimit:4;stroke-dasharray:none;stroke-opacity:1;paint-order:stroke fill markers"
         id="rect1084"
         width="951.07178"
         height="1616.1398"
         x="-66.078506"
         y="71.060333" />
    </mask>
  </defs>
  <sodipodi:namedview
     id="base"
     pagecolor="#ffffff"
     bordercolor="#666666"
     borderopacity="1.0"
     inkscape:pageopacity="0.0"
     inkscape:pageshadow="2"
     inkscape:zoom="0.54767258"
     inkscape:cx="98.563208"
     inkscape:cy="-32.418621"
     inkscape:document-units="mm"
     inkscape:current-layer="layer1"
     inkscape:document-rotation="0"
     showgrid="false"
     fit-margin-top="0"
     fit-margin-left="0"
     fit-margin-right="0"
     fit-margin-bottom="0"
     inkscape:window-width="1141"
     inkscape:window-height="1377"
     inkscape:window-x="1146"
     inkscape:window-y="28"
     inkscape:window-maximized="1"
     showguides="true"
     inkscape:guide-bbox="true"
     units="px" />
  <metadata
     id="metadata5">
    <rdf:RDF>
      <cc:Work
         rdf:about="">
        <dc:format>image/svg+xml</dc:format>
        <dc:type
           rdf:resource="http://purl.org/dc/dcmitype/StillImage" />
        <dc:title></dc:title>
      </cc:Work>
    </rdf:RDF>
  </metadata>
  <g
     inkscape:label="Ebene 1"
     inkscape:groupmode="layer"
     id="layer1"
     transform="translate(-11.398262,-149.13743)">
    <g
       id="g891"
       transform="matrix(0.31236852,0,0,-0.31238909,-84.21137,227.42352)"
       style="stroke:#000000;stroke-width:1.45016;stroke-miterlimit:4;stroke-dasharray:none;stroke-opacity:1"
       mask="url(#mask1076)">
      <g
         id="g893"
         clip-path="url(#clipPath897)"
         style="stroke:#000000;stroke-width:1.45016;stroke-miterlimit:4;stroke-dasharray:none;stroke-opacity:1">
        <g
           id="g899"
           transform="translate(425.0044,44.9245)"
           style="stroke:#000000;stroke-width:1.45016;stroke-miterlimit:4;stroke-dasharray:none;stroke-opacity:1">
          <path
             d="m 0,0 c -2.806,2.815 -6.682,4.557 -10.962,4.557 -4.283,0 -8.158,-1.742 -10.964,-4.557 0.045,-6.017 4.935,-10.881 10.963,-10.881 6.027,0 10.918,4.864 10.963,10.881"
             style="fill:#231f20;fill-opacity:1;fill-rule:nonzero;stroke:#000000;stroke-width:1.45016;stroke-miterlimit:4;stroke-dasharray:none;stroke-opacity:1"
             id="path901" />
        </g>
        <g
           id="g903"
           transform="translate(403.0207,110.9467)"
           style="stroke:#000000;stroke-width:1.45016;stroke-miterlimit:4;stroke-dasharray:none;stroke-opacity:1">
          <path
             d="m 0,0 c 0,-4.596 -3.724,-8.32 -8.321,-8.32 -4.595,0 -8.32,3.724 -8.32,8.32 0,4.597 3.725,8.321 8.32,8.321 C -3.724,8.321 0,4.597 0,0"
             style="fill:#0d0d0d;fill-opacity:1;fill-rule:nonzero;stroke:#000000;stroke-width:1.45016;stroke-miterlimit:4;stroke-dasharray:none;stroke-opacity:1"
             id="path905" />
        </g>
        <g
           id="g907"
           transform="translate(400.1667,111.2698)"
           style="stroke:#000000;stroke-width:1.45016;stroke-miterlimit:4;stroke-dasharray:none;stroke-opacity:1">
          <path
             d="m 0,0 c 0,-1.276 -1.033,-2.305 -2.306,-2.305 -1.272,0 -2.306,1.029 -2.306,2.305 0,1.273 1.034,2.305 2.306,2.305 C -1.033,2.305 0,1.273 0,0"
             style="fill:#ffffff;fill-opacity:1;fill-rule:nonzero;stroke:#000000;stroke-width:1.45016;stroke-miterlimit:4;stroke-dasharray:none;stroke-opacity:1"
             id="path909" />
        </g>
        <g
           id="g911"
           transform="translate(441.5513,110.9467)"
           style="stroke:#000000;stroke-width:1.45016;stroke-miterlimit:4;stroke-dasharray:none;stroke-opacity:1">
          <path
             d="m 0,0 c 0,-4.596 -3.724,-8.32 -8.321,-8.32 -4.595,0 -8.319,3.724 -8.319,8.32 0,4.597 3.724,8.321 8.319,8.321 C -3.724,8.321 0,4.597 0,0"
             style="fill:#0d0d0d;fill-opacity:1;fill-rule:nonzero;stroke:#000000;stroke-width:1.45016;stroke-miterlimit:4;stroke-dasharray:none;stroke-opacity:1"
             id="path913" />
        </g>
        <g
           id="g915"
           transform="translate(438.9747,111.2698)"
           style="stroke:#000000;stroke-width:1.45016;stroke-miterlimit:4;stroke-dasharray:none;stroke-opacity:1">
          <path
             d="m 0,0 c 0,-1.276 -1.033,-2.305 -2.306,-2.305 -1.272,0 -2.306,1.029 -2.306,2.305 0,1.273 1.034,2.305 2.306,2.305 C -1.033,2.305 0,1.273 0,0"
             style="fill:#ffffff;fill-opacity:1;fill-rule:nonzero;stroke:#000000;stroke-width:1.45016;stroke-miterlimit:4;stroke-dasharray:none;stroke-opacity:1"
             id="path917" />
        </g>
        <g
           id="g919"
           transform="translate(414.0729,248.9399)"
           style="stroke:#000000;stroke-width:1.45016;stroke-miterlimit:4;stroke-dasharray:none;stroke-opacity:1">
          <path
             d="M 0,0 107.393,-107.393 0,-214.787 -107.394,-107.393 Z m 23.896,-212.094 -128.597,80.803 80.803,128.598 128.598,-80.804 z m 22.699,7.942 -143.353,50.162 50.163,143.355 143.353,-50.162 z m 20.363,12.796 -150.92,17.005 17.004,150.922 150.922,-17.006 z m 17.005,17.004 -150.921,-17.003 -17.004,150.922 150.921,17.003 z m 12.795,20.362 -143.353,-50.159 -50.163,143.354 143.355,50.16 z m 7.942,22.7 -128.598,-80.803 -80.803,128.6 128.599,80.801 z m -115.855,-6.701 c 0,-4.596 -3.724,-8.32 -8.321,-8.32 -4.594,0 -8.319,3.724 -8.319,8.32 0,4.596 3.725,8.32 8.319,8.32 4.597,0 8.321,-3.724 8.321,-8.32 z m -2.854,0.323 c 0,-1.276 -1.033,-2.305 -2.306,-2.305 -1.272,0 -2.306,1.029 -2.306,2.305 0,1.273 1.034,2.305 2.306,2.305 1.273,0 2.306,-1.032 2.306,-2.305 z m 41.668,-0.323 c 0,-4.596 -3.724,-8.32 -8.321,-8.32 -4.594,0 -8.318,3.724 -8.318,8.32 0,4.596 3.724,8.32 8.318,8.32 4.597,0 8.321,-3.724 8.321,-8.32 z m -2.854,0.323 c 0,-1.276 -1.033,-2.305 -2.305,-2.305 -1.273,0 -2.307,1.029 -2.307,2.305 0,1.273 1.034,2.305 2.307,2.305 1.272,0 2.305,-1.032 2.305,-2.305 z m -78.887,-23.038 54.081,54.082 54.083,-54.08 -54.083,-54.083 z m -9.495,9.494 54.082,54.082 54.082,-54.08 -54.082,-54.084 z m -0.058,0 c -14.934,14.933 -14.934,39.147 0.002,54.082 14.932,14.933 39.147,14.934 54.079,0 14.935,-14.933 14.935,-39.147 0.002,-54.08 -14.935,-14.937 -39.15,-14.937 -54.083,-0.002 z m 18.662,-0.384 54.082,54.082 54.082,-54.08 -54.082,-54.084 z m 54.026,0.004 c -14.932,14.933 -14.932,39.146 10e-4,54.081 14.935,14.934 39.15,14.934 54.083,10e-4 14.933,-14.934 14.933,-39.148 0,-54.082 -14.934,-14.935 -39.148,-14.935 -54.084,0 z m 1.894,-52.235 c 0,-6.056 -4.909,-10.964 -10.964,-10.964 -6.055,0 -10.965,4.908 -10.965,10.964 0,6.055 4.91,10.964 10.965,10.964 6.055,0 10.964,-4.909 10.964,-10.964 z"
             style="fill:none;stroke:#000000;stroke-width:1.45016;stroke-linecap:butt;stroke-linejoin:miter;stroke-miterlimit:4;stroke-dasharray:none;stroke-opacity:1"
             id="path921" />
        </g>
      </g>
    </g>
    <g
       style="clip-rule:evenodd;fill-rule:evenodd;stroke-width:5.8144;stroke-linejoin:round;stroke-miterlimit:4;stroke-dasharray:none"
       id="g955"
       transform="matrix(0.04557625,0,0,0.04557625,4.8919793,142.63124)"
       mask="url(#mask1082)">
      <g
         id="g912"
         style="stroke-width:5.8144;stroke-miterlimit:4;stroke-dasharray:none">
        <path
           d="m 1553.66,961.083 75.25,-75.258 -75.25,-75.246 56.61,-90.096 -90.1,-56.616 35.15,-100.446 -100.44,-35.142 11.91,-105.746 -105.74,-11.912 -11.92,-105.75 -105.74,11.912 -35.15,-100.445 -100.43,35.145 -56.63,-90.1 -90.107,56.617 -75.242,-75.246 -75.242,75.25 -90.104,-56.612 -56.612,90.096 -100.442,-35.15 -35.142,100.441 -105.75,-11.916 -11.912,105.741 -105.742,11.913 11.917,105.741 -100.454,35.15 35.145,100.438 -90.1,56.612 56.621,90.117 -75.258,75.25 75.25,75.258 -56.613,90.107 90.1,56.61 -35.145,100.44 100.45,35.15 -11.913,105.73 105.742,11.92 11.912,105.74 105.75,-11.91 35.142,100.43 100.437,-35.13 56.617,90.1 90.096,-56.62 75.25,74.55 75.25,-74.53 90.099,56.61 56.61,-90.11 100.45,35.15 35.14,-100.44 105.75,11.91 11.91,-105.75 105.75,-11.91 -11.92,-105.74 100.45,-35.15 -35.15,-100.45 90.1,-56.61 z"
           style="fill:#b51f08;fill-rule:nonzero;stroke-width:5.8144;stroke-miterlimit:4;stroke-dasharray:none"
           id="path906" />
        <path
           d="m 1401.3,1004.78 c 0,-145.437 -117.9,-263.341 -263.34,-263.341 -72.24,0 -137.68,29.112 -185.252,76.225 l -0.033,-0.034 -67.096,67.1 -54.862,-54.862 C 782.45,774.801 711.646,739.989 632.675,739.989 c -145.442,0 -263.342,117.904 -263.342,263.341 0,76 32.23,144.43 83.721,192.49 l 432.779,432.55 423.217,-423.49 c 52.88,-49.77 92.25,-120 92.25,-200.1"
           style="fill:#fcca8c;fill-rule:nonzero;stroke-width:5.8144;stroke-miterlimit:4;stroke-dasharray:none"
           id="path908" />
        <path
           d="M 885.579,884.73 830.717,829.868 C 782.45,774.801 711.646,739.989 632.675,739.989 c -145.442,0 -263.342,117.904 -263.342,263.341 0,76 32.23,144.43 83.721,192.49 l 432.779,432.55"
           style="fill:url(#_Linear1);fill-rule:nonzero;stroke-width:5.8144;stroke-miterlimit:4;stroke-dasharray:none"
           id="path910" />
      </g>
      <path
         d="M 885.833,1628.37 885.579,884.73"
         style="fill:none;stroke-width:5.8144;stroke-miterlimit:4;stroke-dasharray:none"
         id="path914" />
      <g
         id="g926"
         style="stroke-width:5.8144;stroke-miterlimit:4;stroke-dasharray:none">
        <path
           d="m 961.011,1553.59 c -19.279,-19.35 -45.917,-31.31 -75.325,-31.31 -29.417,0 -56.046,11.96 -75.329,31.31 0.308,41.34 33.908,74.76 75.325,74.76 41.416,0 75.02,-33.43 75.329,-74.76"
           style="fill:#010007;fill-rule:nonzero;stroke-width:5.8144;stroke-miterlimit:4;stroke-dasharray:none"
           id="path916" />
        <path
           d="m 797.707,1098.22 c 0,31.8 -25.767,57.57 -57.571,57.57 -31.787,0 -57.558,-25.77 -57.558,-57.57 0,-31.8 25.771,-57.57 57.558,-57.57 31.804,0 57.571,25.77 57.571,57.57"
           style="fill:#010007;fill-rule:nonzero;stroke-width:5.8144;stroke-miterlimit:4;stroke-dasharray:none"
           id="path918" />
        <path
           d="m 777.962,1089.59 c 0,8.82 -7.146,15.94 -15.95,15.94 -8.808,0 -15.958,-7.12 -15.958,-15.94 0,-8.81 7.15,-15.96 15.958,-15.96 8.804,0 15.95,7.15 15.95,15.96"
           style="fill:#fffffa;fill-rule:nonzero;stroke-width:5.8144;stroke-miterlimit:4;stroke-dasharray:none"
           id="path920" />
        <path
           d="m 1089.65,1098.22 c 0,31.8 -25.77,57.57 -57.57,57.57 -31.79,0 -57.567,-25.77 -57.567,-57.57 0,-31.8 25.777,-57.57 57.567,-57.57 31.8,0 57.57,25.77 57.57,57.57"
           style="fill:#010007;fill-rule:nonzero;stroke-width:5.8144;stroke-miterlimit:4;stroke-dasharray:none"
           id="path922" />
        <path
           d="m 1069.9,1089.59 c 0,8.82 -7.15,15.94 -15.95,15.94 -8.81,0 -15.96,-7.12 -15.96,-15.94 0,-8.81 7.15,-15.96 15.96,-15.96 8.8,0 15.95,7.15 15.95,15.96"
           style="fill:#fffffa;fill-rule:nonzero;stroke-width:5.8144;stroke-miterlimit:4;stroke-dasharray:none"
           id="path924" />
      </g>
    </g>
  </g>
</svg>
