<?xml version="1.0" encoding="UTF-8" standalone="no"?>
<svg
   xmlns:dc="http://purl.org/dc/elements/1.1/"
   xmlns:cc="http://creativecommons.org/ns#"
   xmlns:rdf="http://www.w3.org/1999/02/22-rdf-syntax-ns#"
   xmlns:svg="http://www.w3.org/2000/svg"
   xmlns="http://www.w3.org/2000/svg"
   xmlns:sodipodi="http://sodipodi.sourceforge.net/DTD/sodipodi-0.dtd"
   xmlns:inkscape="http://www.inkscape.org/namespaces/inkscape"
   width="47.2216mm"
   height="47.026154mm"
   viewBox="0 0 47.2216 47.026154"
   version="1.1"
   id="svg8"
   inkscape:version="1.0.1 (3bc2e813f5, 2020-09-07)"
   sodipodi:docname="codimd.svg">
  <defs
     id="defs2">
    <rect
       x="126.25559"
       y="117.25696"
       width="6.6002312"
       height="5.3278022"
       id="rect890" />
    <rect
       x="126.25559"
       y="117.25696"
       width="6.6002312"
       height="5.3278022"
       id="rect898" />
    <rect
       x="126.25559"
       y="117.25696"
       width="6.6002312"
       height="5.3278022"
       id="rect904" />
  </defs>
  <sodipodi:namedview
     id="base"
     pagecolor="#000000"
     bordercolor="#666666"
     borderopacity="1.0"
     inkscape:pageopacity="1"
     inkscape:pageshadow="2"
     inkscape:zoom="1.148554"
     inkscape:cx="34.470767"
     inkscape:cy="48.377862"
     inkscape:document-units="mm"
     inkscape:current-layer="layer1"
     inkscape:document-rotation="0"
     showgrid="false"
     fit-margin-top="0"
     fit-margin-left="0"
     fit-margin-right="0"
     fit-margin-bottom="0"
     inkscape:window-width="3434"
     inkscape:window-height="1321"
     inkscape:window-x="0"
     inkscape:window-y="84"
     inkscape:window-maximized="1" />
  <metadata
     id="metadata5">
    <rdf:RDF>
      <cc:Work
         rdf:about="">
        <dc:format>image/svg+xml</dc:format>
        <dc:type
           rdf:resource="http://purl.org/dc/dcmitype/StillImage" />
        <dc:title></dc:title>
      </cc:Work>
    </rdf:RDF>
  </metadata>
  <g
     inkscape:label="Ebene 1"
     inkscape:groupmode="layer"
     id="layer1"
     transform="translate(-85.200476,-112.01349)">
    <path
       id="rect861"
       style="fill:none;fill-opacity:1;fill-rule:evenodd;stroke:#ffffff;stroke-width:0.453;stroke-miterlimit:4;stroke-dasharray:1.812, 0.906;stroke-dashoffset:0;stroke-opacity:1;paint-order:stroke fill markers"
       d="m 94.01822,126.26133 c -0.77732,0 -1.40302,0.62569 -1.40302,1.40301 v 29.74496 c 0,0.77733 0.6257,1.40301 1.40302,1.40301 h 24.96023 c 0.77733,0 1.40353,-0.62568 1.40353,-1.40301 v -22.01623 h -6.83317 c -1.13129,0 -2.04225,-0.91096 -2.04225,-2.04225 v -7.08949 z m 19.49442,0.0129 v 6.66161 l 6.81767,0.15554 z m -13.53768,13.88649 h 13.79657 c 0.41488,0 0.7488,0.33392 0.7488,0.74879 v 0.94723 c 0,0.41488 -0.33392,0.74879 -0.7488,0.74879 H 99.97496 c -0.41488,0 -0.74879,-0.33391 -0.74879,-0.74879 v -0.94723 c 0,-0.41487 0.33391,-0.74879 0.74879,-0.74879 z m 0,4.51703 h 13.79657 c 0.41488,0 0.7488,0.33393 0.7488,0.7488 v 0.94671 c 0,0.41487 -0.33392,0.74931 -0.7488,0.74931 H 99.97496 c -0.41488,0 -0.74879,-0.33444 -0.74879,-0.74931 v -0.94671 c 0,-0.41486 0.33391,-0.74879 0.74879,-0.74879 z m 0,4.51704 h 13.79657 c 0.41488,0 0.7488,0.33392 0.7488,0.74879 v 0.94672 c 0,0.41487 -0.33392,0.74879 -0.7488,0.74879 H 99.97496 c -0.41488,0 -0.74879,-0.33392 -0.74879,-0.74879 v -0.94672 c 0,-0.41487 0.33391,-0.74879 0.74879,-0.74879 z" />
    <g
       aria-label="?"
       transform="matrix(8.6986424,3.5447648,-3.5447648,8.6986424,-559.25498,-1335.2275)"
       id="text888"
       style="font-size:2.82222px;line-height:1;font-family:'Josefin Sans';-inkscape-font-specification:'Josefin Sans';letter-spacing:0px;word-spacing:0px;white-space:pre;shape-inside:url(#rect890);fill:#ffffff;fill-opacity:1;stroke-width:0.10646">
      <path
         d="m 126.72717,118.67457 q 0,-0.127 0.0339,-0.21167 0.0339,-0.0847 0.079,-0.13264 0.048,-0.048 0.14111,-0.127 0.10724,-0.0903 0.16087,-0.16934 0.0536,-0.079 0.0536,-0.19473 0,-0.13547 -0.0931,-0.22296 -0.0931,-0.0903 -0.21732,-0.0903 -0.13264,0 -0.22577,0.0819 -0.0903,0.0818 -0.13547,0.21166 l -0.21731,-0.1016 q 0.031,-0.096 0.10724,-0.19473 0.0762,-0.1016 0.2032,-0.17215 0.127,-0.0706 0.29634,-0.0706 0.24553,0.003 0.40357,0.14393 0.15805,0.14111 0.15805,0.39229 0,0.127 -0.0367,0.22014 -0.0339,0.0903 -0.0903,0.15522 -0.0536,0.0621 -0.14393,0.14111 -0.0819,0.0734 -0.12136,0.11571 -0.0395,0.0395 -0.0677,0.11007 -0.0254,0.0705 -0.0254,0.17497 v 0.11854 h -0.26247 z m 0.13547,0.68862 q -0.0734,0 -0.12136,-0.0423 -0.048,-0.0423 -0.048,-0.11007 0,-0.0649 0.048,-0.10725 0.0508,-0.0451 0.12136,-0.0451 0.0705,0 0.11571,0.0451 0.048,0.0423 0.048,0.10725 0,0.0677 -0.0452,0.11007 -0.0452,0.0423 -0.11853,0.0423 z"
         style="fill:#ffffff;fill-opacity:1;stroke-width:0.10646"
         id="path906" />
    </g>
    <g
       aria-label="?"
       transform="matrix(7.7656315,-3.244922,3.244922,7.7656315,-1277.6214,-359.09498)"
       id="text896"
       style="font-size:2.82222px;line-height:1;font-family:'Josefin Sans';-inkscape-font-specification:'Josefin Sans';letter-spacing:0px;word-spacing:0px;white-space:pre;shape-inside:url(#rect898);fill:#ffffff;fill-opacity:1;stroke-width:0.118817">
      <path
         d="m 126.72717,118.67457 q 0,-0.127 0.0339,-0.21167 0.0339,-0.0847 0.079,-0.13264 0.048,-0.048 0.14111,-0.127 0.10724,-0.0903 0.16087,-0.16934 0.0536,-0.079 0.0536,-0.19473 0,-0.13547 -0.0931,-0.22296 -0.0931,-0.0903 -0.21732,-0.0903 -0.13264,0 -0.22577,0.0819 -0.0903,0.0818 -0.13547,0.21166 l -0.21731,-0.1016 q 0.031,-0.096 0.10724,-0.19473 0.0762,-0.1016 0.2032,-0.17215 0.127,-0.0706 0.29634,-0.0706 0.24553,0.003 0.40357,0.14393 0.15805,0.14111 0.15805,0.39229 0,0.127 -0.0367,0.22014 -0.0339,0.0903 -0.0903,0.15522 -0.0536,0.0621 -0.14393,0.14111 -0.0819,0.0734 -0.12136,0.11571 -0.0395,0.0395 -0.0677,0.11007 -0.0254,0.0705 -0.0254,0.17497 v 0.11854 h -0.26247 z m 0.13547,0.68862 q -0.0734,0 -0.12136,-0.0423 -0.048,-0.0423 -0.048,-0.11007 0,-0.0649 0.048,-0.10725 0.0508,-0.0451 0.12136,-0.0451 0.0705,0 0.11571,0.0451 0.048,0.0423 0.048,0.10725 0,0.0677 -0.0452,0.11007 -0.0452,0.0423 -0.11853,0.0423 z"
         style="fill:#ffffff;fill-opacity:1;stroke-width:0.118817"
         id="path912" />
    </g>
    <g
       aria-label="?"
       transform="matrix(10.85406,-2.732965,2.732965,10.85406,-1599.4682,-813.87029)"
       id="text902"
       style="font-size:2.82222px;line-height:1;font-family:'Josefin Sans';-inkscape-font-specification:'Josefin Sans';letter-spacing:0px;word-spacing:0px;white-space:pre;shape-inside:url(#rect904);fill:#ffffff;fill-opacity:1;stroke-width:0.0893428">
      <path
         d="m 126.72717,118.67457 q 0,-0.127 0.0339,-0.21167 0.0339,-0.0847 0.079,-0.13264 0.048,-0.048 0.14111,-0.127 0.10724,-0.0903 0.16087,-0.16934 0.0536,-0.079 0.0536,-0.19473 0,-0.13547 -0.0931,-0.22296 -0.0931,-0.0903 -0.21732,-0.0903 -0.13264,0 -0.22577,0.0819 -0.0903,0.0818 -0.13547,0.21166 l -0.21731,-0.1016 q 0.031,-0.096 0.10724,-0.19473 0.0762,-0.1016 0.2032,-0.17215 0.127,-0.0706 0.29634,-0.0706 0.24553,0.003 0.40357,0.14393 0.15805,0.14111 0.15805,0.39229 0,0.127 -0.0367,0.22014 -0.0339,0.0903 -0.0903,0.15522 -0.0536,0.0621 -0.14393,0.14111 -0.0819,0.0734 -0.12136,0.11571 -0.0395,0.0395 -0.0677,0.11007 -0.0254,0.0705 -0.0254,0.17497 v 0.11854 h -0.26247 z m 0.13547,0.68862 q -0.0734,0 -0.12136,-0.0423 -0.048,-0.0423 -0.048,-0.11007 0,-0.0649 0.048,-0.10725 0.0508,-0.0451 0.12136,-0.0451 0.0705,0 0.11571,0.0451 0.048,0.0423 0.048,0.10725 0,0.0677 -0.0452,0.11007 -0.0452,0.0423 -0.11853,0.0423 z"
         style="fill:#ffffff;fill-opacity:1;stroke-width:0.0893428"
         id="path909" />
    </g>
  </g>
</svg>
