<svg height="47.026154mm" viewBox="0 0 47.2216 47.026154" width="47.2216mm" xmlns="http://www.w3.org/2000/svg"><g transform="translate(-85.200476 -112.01349)"><path d="m94.01822 126.26133c-.77732 0-1.40302.62569-1.40302 1.40301v29.74496c0 .77733.6257 1.40301 1.40302 1.40301h24.96023c.77733 0 1.40353-.62568 1.40353-1.40301v-22.01623h-6.83317c-1.13129 0-2.04225-.91096-2.04225-2.04225v-7.08949zm19.49442.0129v6.66161l6.81767.15554zm-13.53768 13.88649h13.79657c.41488 0 .7488.33392.7488.74879v.94723c0 .41488-.33392.74879-.7488.74879h-13.79657c-.41488 0-.74879-.33391-.74879-.74879v-.94723c0-.41487.33391-.74879.74879-.74879zm0 4.51703h13.79657c.41488 0 .7488.33393.7488.7488v.94671c0 .41487-.33392.74931-.7488.74931h-13.79657c-.41488 0-.74879-.33444-.74879-.74931v-.94671c0-.41486.33391-.74879.74879-.74879zm0 4.51704h13.79657c.41488 0 .7488.33392.7488.74879v.94672c0 .41487-.33392.74879-.7488.74879h-13.79657c-.41488 0-.74879-.33392-.74879-.74879v-.94672c0-.41487.33391-.74879.74879-.74879z" fill="none" stroke="#fff" stroke-dasharray="1.812 .906" stroke-width=".453"/><g fill="#fff"><path d="m126.72717 118.67457q0-.127.0339-.21167.0339-.0847.079-.13264.048-.048.14111-.127.10724-.0903.16087-.16934.0536-.079.0536-.19473 0-.13547-.0931-.22296-.0931-.0903-.21732-.0903-.13264 0-.22577.0819-.0903.0818-.13547.21166l-.21731-.1016q.031-.096.10724-.19473.0762-.1016.2032-.17215.127-.0706.29634-.0706.24553.003.40357.14393.15805.14111.15805.39229 0 .127-.0367.22014-.0339.0903-.0903.15522-.0536.0621-.14393.14111-.0819.0734-.12136.11571-.0395.0395-.0677.11007-.0254.0705-.0254.17497v.11854h-.26247zm.13547.68862q-.0734 0-.12136-.0423-.048-.0423-.048-.11007 0-.0649.048-.10725.0508-.0451.12136-.0451.0705 0 .11571.0451.048.0423.048.10725 0 .0677-.0452.11007-.0452.0423-.11853.0423z" stroke-width=".10646" transform="matrix(8.6986424 3.5447648 -3.5447648 8.6986424 -559.25498 -1335.2275)"/><path d="m126.72717 118.67457q0-.127.0339-.21167.0339-.0847.079-.13264.048-.048.14111-.127.10724-.0903.16087-.16934.0536-.079.0536-.19473 0-.13547-.0931-.22296-.0931-.0903-.21732-.0903-.13264 0-.22577.0819-.0903.0818-.13547.21166l-.21731-.1016q.031-.096.10724-.19473.0762-.1016.2032-.17215.127-.0706.29634-.0706.24553.003.40357.14393.15805.14111.15805.39229 0 .127-.0367.22014-.0339.0903-.0903.15522-.0536.0621-.14393.14111-.0819.0734-.12136.11571-.0395.0395-.0677.11007-.0254.0705-.0254.17497v.11854h-.26247zm.13547.68862q-.0734 0-.12136-.0423-.048-.0423-.048-.11007 0-.0649.048-.10725.0508-.0451.12136-.0451.0705 0 .11571.0451.048.0423.048.10725 0 .0677-.0452.11007-.0452.0423-.11853.0423z" stroke-width=".118817" transform="matrix(7.7656315 -3.244922 3.244922 7.7656315 -1277.6214 -359.09498)"/><path d="m126.72717 118.67457q0-.127.0339-.21167.0339-.0847.079-.13264.048-.048.14111-.127.10724-.0903.16087-.16934.0536-.079.0536-.19473 0-.13547-.0931-.22296-.0931-.0903-.21732-.0903-.13264 0-.22577.0819-.0903.0818-.13547.21166l-.21731-.1016q.031-.096.10724-.19473.0762-.1016.2032-.17215.127-.0706.29634-.0706.24553.003.40357.14393.15805.14111.15805.39229 0 .127-.0367.22014-.0339.0903-.0903.15522-.0536.0621-.14393.14111-.0819.0734-.12136.11571-.0395.0395-.0677.11007-.0254.0705-.0254.17497v.11854h-.26247zm.13547.68862q-.0734 0-.12136-.0423-.048-.0423-.048-.11007 0-.0649.048-.10725.0508-.0451.12136-.0451.0705 0 .11571.0451.048.0423.048.10725 0 .0677-.0452.11007-.0452.0423-.11853.0423z" stroke-width=".089343" transform="matrix(10.85406 -2.732965 2.732965 10.85406 -1599.4682 -813.87029)"/></g></g></svg>