<svg xmlns="http://www.w3.org/2000/svg" height="177.737" viewBox="0 0 47.222 47.026" width="178.475"><g stroke="#3b4045" stroke-linejoin="round"><path d="M9.025 14.377A1.38 1.38 0 007.64 15.76v29.328a1.38 1.38 0 001.384 1.384h24.61a1.38 1.38 0 001.384-1.384V23.381H28.28a2.01 2.01 0 01-2.013-2.014v-6.99zm19.22.013v6.568l6.723.153zM14.899 28.082H28.5c.41 0 .738.329.738.738v.934a.736.736 0 01-.738.738H14.898a.737.737 0 01-.738-.738v-.934c0-.41.329-.738.738-.738zm0 4.453H28.5c.41 0 .738.33.738.739v.933c0 .41-.329.739-.738.739H14.898a.737.737 0 01-.738-.739v-.933c0-.41.329-.739.738-.739zm0 4.454H28.5c.41 0 .738.33.738.738v.934a.736.736 0 01-.738.738H14.898a.737.737 0 01-.738-.738v-.934c0-.409.329-.738.738-.738z" fill="#fff" stroke-dasharray="2.8702,1.43510000000000004" stroke-width=".718"/><g fill="#3b4045" stroke-width=".59"><path d="M126.727 118.675q0-.127.034-.212.034-.085.08-.133.047-.048.14-.127.107-.09.161-.17.054-.078.054-.194 0-.135-.093-.223-.094-.09-.218-.09-.132 0-.226.082-.09.082-.135.211l-.217-.101q.03-.096.107-.195.076-.101.203-.172.127-.07.296-.07.246.002.404.143.158.141.158.393 0 .127-.037.22-.034.09-.09.155-.054.062-.144.141-.082.073-.121.116-.04.04-.068.11-.025.07-.025.175v.118h-.263zm.136.688q-.074 0-.122-.042t-.048-.11q0-.065.048-.107.051-.046.122-.046.07 0 .115.046.048.042.048.107 0 .068-.045.11-.045.042-.118.042z" stroke-width=".063" transform="matrix(8.57672 3.49507 -3.49508 8.5767 -635.092 -1426.624)"/><path d="M126.727 118.675q0-.127.034-.212.034-.085.08-.133.047-.048.14-.127.107-.09.161-.17.054-.078.054-.194 0-.135-.093-.223-.094-.09-.218-.09-.132 0-.226.082-.09.082-.135.211l-.217-.101q.03-.096.107-.195.076-.101.203-.172.127-.07.296-.07.246.002.404.143.158.141.158.393 0 .127-.037.22-.034.09-.09.155-.054.062-.144.141-.082.073-.121.116-.04.04-.068.11-.025.07-.025.175v.118h-.263zm.136.688q-.074 0-.122-.042t-.048-.11q0-.065.048-.107.051-.046.122-.046.07 0 .115.046.048.042.048.107 0 .068-.045.11-.045.042-.118.042z" stroke-width=".07" transform="scale(8.29836 8.29834) rotate(-22.678 -220.415 375.684)"/><path d="M126.727 118.675q0-.127.034-.212.034-.085.08-.133.047-.048.14-.127.107-.09.161-.17.054-.078.054-.194 0-.135-.093-.223-.094-.09-.218-.09-.132 0-.226.082-.09.082-.135.211l-.217-.101q.03-.096.107-.195.076-.101.203-.172.127-.07.296-.07.246.002.404.143.158.141.158.393 0 .127-.037.22-.034.09-.09.155-.054.062-.144.141-.082.073-.121.116-.04.04-.068.11-.025.07-.025.175v.118h-.263zm.136.688q-.074 0-.122-.042t-.048-.11q0-.065.048-.107.051-.046.122-.046.07 0 .115.046.048.042.048.107 0 .068-.045.11-.045.042-.118.042z" stroke-width=".053" transform="scale(11.03596 11.03594) rotate(-14.133 -408.778 565.63)"/></g></g></svg>