<svg xmlns="http://www.w3.org/2000/svg" width="250" height="250" viewBox="0 0 66.146 66.146"><path fill="#3b4045" fill-rule="evenodd" stroke-width=".431" d="M32.278 22.49c-2.9.024-5.69.338-7.316 1.084 0 0-3.226 1.443-3.226 6.366 0 1.127-.022 2.474.014 3.904.117 4.814.883 9.559 5.333 10.736 2.053.544 3.814.657 5.234.58 2.573-.143 4.017-.92 4.017-.92l-.085-1.866s-1.838.58-3.903.509c-2.047-.07-4.207-.22-4.538-2.733a5.223 5.223 0 0 1-.046-.704s2.009.49 4.555.608c1.556.071 3.016-.092 4.498-.27 2.844-.338 5.32-2.09 5.63-3.691.49-2.52.45-6.153.45-6.153 0-4.923-3.224-6.366-3.224-6.366-1.627-.746-4.42-1.06-7.32-1.084zm-3.282 3.846c1.209 0 2.124.465 2.729 1.394l.588.986.588-.986c.605-.93 1.52-1.394 2.729-1.394 1.044 0 1.886.367 2.528 1.083.623.717.932 1.685.932 2.903v5.96h-2.36v-5.785c0-1.22-.514-1.838-1.54-1.838-1.135 0-1.703.734-1.703 2.186v3.166h-2.348v-3.166c0-1.452-.57-2.186-1.703-2.186-1.027 0-1.54.619-1.54 1.838v5.785h-2.361v-5.96c0-1.218.31-2.186.932-2.903.643-.716 1.485-1.083 2.529-1.083z"/></svg>
