<svg xmlns="http://www.w3.org/2000/svg" width="250" height="250" viewBox="0 0 66.146 66.146" version="1.1" id="svg8"><defs id="defs2"><style id="style1012"/></defs><g id="layer1" fill-rule="evenodd" fill="#3b4045"><g id="g1037" transform="translate(-85.323 .821)" stroke-width=".431"><path id="path947" d="M83.984 47.39c-10.964.091-21.508 1.279-27.654 4.098 0 0-12.193 5.454-12.193 24.06 0 4.26-.084 9.352.052 14.757.443 18.194 3.338 36.127 20.157 40.576 7.759 2.056 14.416 2.486 19.783 2.191 9.725-.54 15.185-3.472 15.185-3.472l-.322-7.057s-6.949 2.192-14.754 1.924c-7.736-.265-15.901-.832-17.152-10.33a19.74 19.74 0 01-.174-2.66s7.594 1.856 17.217 2.298c5.88.269 11.399-.348 17-1.017 10.749-1.281 20.108-7.902 21.28-13.953 1.855-9.528 1.698-23.256 1.698-23.256 0-18.607-12.183-24.06-12.183-24.06-6.15-2.82-16.708-4.008-27.668-4.098zM71.576 61.929c4.57 0 8.028 1.756 10.315 5.267l2.222 3.727 2.223-3.727c2.287-3.515 5.745-5.267 10.314-5.267 3.946 0 7.129 1.387 9.555 4.093 2.355 2.71 3.525 6.368 3.525 10.971v22.526h-8.923V77.654c0-4.61-1.94-6.947-5.82-6.947-4.287 0-6.436 2.774-6.436 8.262v11.967h-8.875V78.969c0-5.488-2.15-8.262-6.436-8.262-3.881 0-5.82 2.34-5.82 6.947v21.864h-8.924V76.992c0-4.603 1.17-8.26 3.525-10.97 2.427-2.707 5.61-4.094 9.555-4.094z" transform="matrix(.26458 0 0 .26458 85.323 -.821)" stroke-width="1.629"/></g><path d="M39.438 54.188c9.83 0 15.206-8.144 15.206-15.207 0-.23 0-.461-.015-.69a10.874 10.874 0 002.666-2.767 10.668 10.668 0 01-3.07.841 5.363 5.363 0 002.35-2.956 10.71 10.71 0 01-3.394 1.297 5.35 5.35 0 00-9.108 4.875 15.173 15.173 0 01-11.014-5.584 5.349 5.349 0 001.654 7.134 5.305 5.305 0 01-2.426-.669v.068a5.346 5.346 0 004.288 5.239 5.336 5.336 0 01-2.413.092 5.35 5.35 0 004.993 3.711 10.724 10.724 0 01-6.637 2.292 10.88 10.88 0 01-1.273-.077 15.13 15.13 0 008.193 2.397" id="path1020" stroke-width=".265"/></g></svg>
