<svg width="720" height="171.91" clip-rule="evenodd" fill-rule="evenodd" stroke-linejoin="round" stroke-miterlimit="2" version="1.1" viewBox="0 0 720 171.91" xmlns="http://www.w3.org/2000/svg"><linearGradient id="a" x2="1" gradientTransform="matrix(67.832 -141.83 142.45 67.539 98.582 202.62)" gradientUnits="userSpaceOnUse"><stop stop-color="#fdd49a" offset="0"/><stop stop-color="#dca055" offset="1"/></linearGradient><g transform="translate(0 2.1561)" stroke-width=".41332"><path d="m89.314 0c-49.328 0-89.314 39.815-89.314 88.928 0 25.665 10.931 48.774 28.395 65.004l17.689 17.604h258.03l14.598-14.545c17.935-16.807 31.287-40.523 31.287-67.572 0-49.113-39.987-88.928-89.314-88.928-24.501 0-46.696 9.8305-62.83 25.74l-0.01-0.01172-22.756 22.66-18.607-18.527c-16.37-18.596-40.384-30.352-67.168-30.352z" fill="#fdd49a" fill-rule="nonzero"/><path d="m89.314 0c-49.328 0-89.314 39.815-89.314 88.928 0 25.665 10.931 48.774 28.395 65.004l17.689 17.604h129.05l-0.04102-122.66-18.607-18.527c-16.37-18.596-40.384-30.352-67.168-30.352z" fill="url(#a)" fill-rule="nonzero"/><path d="m175.18 300-0.08614-251.12" fill="none"/><g fill-rule="nonzero"><path d="m145.29 120.97c0 10.739-8.7391 19.441-19.526 19.441-10.781 0-19.521-8.7023-19.521-19.441 0-10.739 8.7404-19.441 19.521-19.441 10.787 0 19.526 8.7024 19.526 19.441" fill="#010007"/><path d="m138.59 118.06c0 2.9784-2.4236 5.3828-5.4096 5.3828-2.9873 0-5.4123-2.4044-5.4123-5.3828 0-2.9751 2.425-5.3896 5.4123-5.3896 2.986 0 5.4096 2.4145 5.4096 5.3896" fill="#fffffa"/><path d="m244.3 120.97c0 10.739-8.7401 19.441-19.525 19.441-10.782 0-19.524-8.7023-19.524-19.441 0-10.739 8.7425-19.441 19.524-19.441 10.785 0 19.525 8.7024 19.525 19.441" fill="#010007"/><path d="m237.6 118.06c0 2.9784-2.425 5.3828-5.4096 5.3828-2.988 0-5.413-2.4044-5.413-5.3828 0-2.9751 2.425-5.3896 5.413-5.3896 2.9846 0 5.4096 2.4145 5.4096 5.3896" fill="#fffffa"/></g></g></svg>
