<svg clip-rule="evenodd" fill-rule="evenodd" height="171.91472" stroke-linejoin="round" stroke-miterlimit="2" viewBox="0 0 699.99998 171.91472" width="700" xmlns="http://www.w3.org/2000/svg" xmlns:xlink="http://www.w3.org/1999/xlink"><linearGradient id="a" gradientTransform="matrix(67.831626 -141.83104 142.44641 67.53859 98.582076 202.61948)" gradientUnits="userSpaceOnUse" x1="0" x2="1" y1="0" y2="0"><stop offset="0" stop-color="#fdd49a"/><stop offset="1" stop-color="#dca055"/></linearGradient><g stroke-width=".413322" transform="translate(0 2.156097)"><path d="m89.314453 0c-49.327837 0-89.314453 39.814684-89.314453 88.927734 0 25.664666 10.93094 48.774386 28.394531 65.003906l17.689453 17.60352h258.031246l14.59766-14.54493c17.93468-16.80698 31.28711-40.52305 31.28711-67.572261 0-49.113049-39.9873-88.92773462-89.31445-88.92773462-24.50079 0-46.69565 9.83050662-62.83008 25.74023462l-.01-.01172-22.75586 22.660156-18.60742-18.527344c-16.3699-18.595738-40.38408-30.351561-67.167737-30.351561z" fill="#fdd49a" fill-rule="nonzero"/><path d="m89.314453 0c-49.327837 0-89.314453 39.814684-89.314453 88.927734 0 25.664666 10.93094 48.774386 28.394531 65.003906l17.689453 17.60352h129.046876l-.04102-122.656254-18.60742-18.527344c-16.37014-18.595738-40.38431-30.351562-67.167967-30.351562z" fill="url(#a)" fill-rule="nonzero"/><path d="m175.17517 300-.08614-251.121986" fill="none"/><g fill-rule="nonzero"><path d="m145.28652 120.97208c0 10.73864-8.73908 19.44098-19.52567 19.44098-10.78082 0-19.52126-8.70234-19.52126-19.44098 0-10.73863 8.74044-19.44098 19.52126-19.44098 10.78659 0 19.52567 8.70235 19.52567 19.44098" fill="#010007"/><path d="m138.58985 118.05779c0 2.97845-2.42363 5.38283-5.40958 5.38283-2.9873 0-5.41228-2.40438-5.41228-5.38283 0-2.97507 2.42498-5.38958 5.41228-5.38958 2.98595 0 5.40958 2.41451 5.40958 5.38958" fill="#fffffa"/><path d="m244.30137 120.97208c0 10.73864-8.74011 19.44098-19.52534 19.44098-10.78183 0-19.52431-8.70234-19.52431-19.44098 0-10.73863 8.74248-19.44098 19.52431-19.44098 10.78523 0 19.52534 8.70235 19.52534 19.44098" fill="#010007"/><path d="m237.60299 118.05779c0 2.97845-2.42498 5.38283-5.40957 5.38283-2.98798 0-5.41296-2.40438-5.41296-5.38283 0-2.97507 2.42498-5.38958 5.41296-5.38958 2.98459 0 5.40957 2.41451 5.40957 5.38958" fill="#fffffa"/></g></g></svg>