<?xml version="1.0" encoding="UTF-8" standalone="no"?>
<svg
   xmlns:dc="http://purl.org/dc/elements/1.1/"
   xmlns:cc="http://creativecommons.org/ns#"
   xmlns:rdf="http://www.w3.org/1999/02/22-rdf-syntax-ns#"
   xmlns:svg="http://www.w3.org/2000/svg"
   xmlns="http://www.w3.org/2000/svg"
   xmlns:sodipodi="http://sodipodi.sourceforge.net/DTD/sodipodi-0.dtd"
   xmlns:inkscape="http://www.inkscape.org/namespaces/inkscape"
   width="1508.7396"
   height="997.05182"
   viewBox="0 0 1508.7396 997.05182"
   version="1.1"
   xml:space="preserve"
   style="clip-rule:evenodd;fill-rule:evenodd;stroke-linejoin:round;stroke-miterlimit:2"
   id="svg79"
   sodipodi:docname="HedgeDoc-Logo 4b (Kopie).svg"
   inkscape:version="1.0.1 (3bc2e813f5, 2020-09-07)"><metadata
   id="metadata83"><rdf:RDF><cc:Work
       rdf:about=""><dc:format>image/svg+xml</dc:format><dc:type
         rdf:resource="http://purl.org/dc/dcmitype/StillImage" /><dc:title></dc:title></cc:Work></rdf:RDF></metadata><sodipodi:namedview
   pagecolor="#ffffff"
   bordercolor="#666666"
   borderopacity="1"
   objecttolerance="10"
   gridtolerance="10"
   guidetolerance="10"
   inkscape:pageopacity="0"
   inkscape:pageshadow="2"
   inkscape:window-width="854"
   inkscape:window-height="1377"
   id="namedview81"
   showgrid="false"
   fit-margin-top="0"
   fit-margin-left="0"
   fit-margin-right="0"
   fit-margin-bottom="0"
   inkscape:zoom="0.066063227"
   inkscape:cx="427.62724"
   inkscape:cy="529.48036"
   inkscape:window-x="1720"
   inkscape:window-y="28"
   inkscape:window-maximized="0"
   inkscape:current-layer="svg79" />
    <g
   transform="matrix(0.363263,0,0,0.363263,419.73023,-13.00251)"
   id="g70"
   style="stroke-width:1.17796">
        <g
   transform="matrix(9.72343,0,0,9.72343,-482.362,2391.77)"
   id="g4"
   style="stroke-width:1.17796">
            <path
   d="m 0,-53.822 v 24.4 h -30.678 v -24.4 h -6.28 V 0 h 6.28 V -23.681 H 0 V 0 h 6.278 v -53.822 z"
   style="fill-rule:nonzero;stroke-width:1.17796"
   id="path2" />
        </g>
        <g
   transform="matrix(9.72343,0,0,9.72343,22.4729,2217.67)"
   id="g8"
   style="stroke-width:1.17796">
            <path
   d="m 0,-0.072 v 2.404 h -30.427 c 0.598,3.181 2.135,5.795 4.611,7.84 2.475,2.045 5.459,3.068 8.951,3.068 1.939,0 3.984,-0.377 6.137,-1.13 2.152,-0.754 4.113,-1.968 5.884,-3.642 l 3.48,4.449 c -2.607,2.177 -5.209,3.672 -7.804,4.485 -2.596,0.813 -5.101,1.22 -7.517,1.22 -3.875,0 -7.32,-0.807 -10.334,-2.422 -3.013,-1.615 -5.376,-3.844 -7.086,-6.692 -1.71,-2.846 -2.566,-6.087 -2.566,-9.723 0,-3.541 0.802,-6.704 2.405,-9.491 1.602,-2.786 3.803,-4.981 6.602,-6.585 2.799,-1.602 5.967,-2.403 9.508,-2.403 3.541,0 6.674,0.801 9.401,2.403 2.727,1.604 4.868,3.804 6.422,6.603 C -0.778,-6.89 0,-3.684 0,-0.072 m -30.499,-2.62 h 24.327 c -0.526,-3.133 -1.878,-5.686 -4.054,-7.66 -2.177,-1.974 -4.832,-2.96 -7.965,-2.96 -3.182,0 -5.897,0.999 -8.145,2.996 -2.249,1.997 -3.637,4.539 -4.163,7.624"
   style="fill-rule:nonzero;stroke-width:1.17796"
   id="path6" />
        </g>
        <g
   transform="matrix(9.72343,0,0,9.72343,261.466,2231.27)"
   id="g12"
   style="stroke-width:1.17796">
            <path
   d="m 0,-20.093 c 2.631,0 5.071,0.479 7.32,1.436 2.248,0.957 4.174,2.284 5.776,3.982 v -22.641 h 5.921 V 16.506 H 13.671 L 13.348,11.518 C 11.744,13.289 9.795,14.682 7.499,15.699 5.203,16.715 2.703,17.223 0,17.223 c -3.469,0 -6.573,-0.807 -9.312,-2.421 -2.739,-1.615 -4.892,-3.828 -6.458,-6.639 -1.567,-2.81 -2.35,-6.009 -2.35,-9.598 0,-3.588 0.783,-6.787 2.35,-9.598 1.566,-2.811 3.719,-5.023 6.458,-6.638 2.739,-1.615 5.843,-2.422 9.312,-2.422 m -12.021,18.658 c 0,2.536 0.544,4.808 1.634,6.817 1.087,2.01 2.576,3.588 4.467,4.737 1.889,1.148 4.042,1.722 6.458,1.722 2.416,0 4.569,-0.574 6.458,-1.722 1.89,-1.149 3.379,-2.727 4.468,-4.737 1.088,-2.009 1.632,-4.281 1.632,-6.817 0,-2.559 -0.544,-4.838 -1.632,-6.835 -1.089,-1.997 -2.578,-3.57 -4.468,-4.718 -1.889,-1.149 -4.042,-1.723 -6.458,-1.723 -2.416,0 -4.569,0.574 -6.458,1.723 -1.891,1.148 -3.38,2.721 -4.467,4.718 -1.09,1.997 -1.634,4.276 -1.634,6.835"
   style="fill-rule:nonzero;stroke-width:1.17796"
   id="path10" />
        </g>
        <g
   transform="matrix(9.72343,0,0,9.72343,709.786,2210.34)"
   id="g16"
   style="stroke-width:1.17796">
            <path
   d="m 0,19.376 c -3.469,0 -6.573,-0.807 -9.312,-2.422 -2.739,-1.615 -4.892,-3.827 -6.458,-6.638 -1.567,-2.81 -2.35,-6.01 -2.35,-9.599 0,-3.588 0.783,-6.786 2.35,-9.597 1.566,-2.811 3.719,-5.024 6.458,-6.639 2.739,-1.614 5.843,-2.421 9.312,-2.421 2.702,0 5.203,0.508 7.499,1.524 2.296,1.018 4.245,2.41 5.848,4.181 l 0.324,-4.988 h 5.346 v 32.364 c 0,4.426 -0.802,8.301 -2.404,11.627 -1.603,3.324 -3.965,5.914 -7.086,7.767 -3.123,1.854 -6.968,2.781 -11.536,2.781 -2.512,0 -4.869,-0.364 -7.069,-1.094 -2.201,-0.73 -4.187,-1.752 -5.956,-3.068 l 2.941,-4.951 c 1.34,1.171 2.872,2.086 4.594,2.744 1.722,0.658 3.588,0.987 5.597,0.987 5.095,0 8.868,-1.466 11.321,-4.395 2.451,-2.931 3.677,-6.836 3.677,-11.715 V 13.958 C 11.494,15.657 9.567,16.984 7.32,17.941 5.071,18.897 2.63,19.376 0,19.376 M -12.021,0.717 c 0,2.536 0.544,4.809 1.634,6.818 1.087,2.009 2.576,3.588 4.466,4.736 1.89,1.149 4.043,1.723 6.459,1.723 2.416,0 4.569,-0.574 6.458,-1.723 1.89,-1.148 3.379,-2.727 4.468,-4.736 1.088,-2.009 1.632,-4.282 1.632,-6.818 0,-2.558 -0.544,-4.837 -1.632,-6.835 -1.089,-1.996 -2.578,-3.569 -4.468,-4.718 -1.889,-1.148 -4.042,-1.722 -6.458,-1.722 -2.416,0 -4.569,0.574 -6.459,1.722 -1.89,1.149 -3.379,2.722 -4.466,4.718 -1.09,1.998 -1.634,4.277 -1.634,6.835"
   style="fill-rule:nonzero;stroke-width:1.17796"
   id="path14" />
        </g>
        <g
   transform="matrix(9.72343,0,0,9.72343,1338.48,2217.67)"
   id="g20"
   style="stroke-width:1.17796">
            <path
   d="m 0,-0.072 v 2.404 h -30.427 c 0.598,3.181 2.135,5.795 4.611,7.84 2.476,2.045 5.46,3.068 8.952,3.068 1.938,0 3.983,-0.377 6.136,-1.13 2.153,-0.754 4.113,-1.968 5.884,-3.642 l 3.48,4.449 c -2.607,2.177 -5.209,3.672 -7.803,4.485 -2.596,0.813 -5.101,1.22 -7.518,1.22 -3.875,0 -7.319,-0.807 -10.333,-2.422 -3.014,-1.615 -5.377,-3.844 -7.087,-6.692 -1.71,-2.846 -2.566,-6.087 -2.566,-9.723 0,-3.541 0.802,-6.704 2.405,-9.491 1.602,-2.786 3.803,-4.981 6.602,-6.585 2.799,-1.602 5.968,-2.403 9.508,-2.403 3.541,0 6.674,0.801 9.401,2.403 2.727,1.604 4.868,3.804 6.422,6.603 C -0.778,-6.89 0,-3.684 0,-0.072 m -30.499,-2.62 h 24.327 c -0.526,-3.133 -1.878,-5.686 -4.054,-7.66 -2.177,-1.974 -4.832,-2.96 -7.965,-2.96 -3.182,0 -5.897,0.999 -8.145,2.996 -2.249,1.997 -3.637,4.539 -4.163,7.624"
   style="fill-rule:nonzero;stroke-width:1.17796"
   id="path18" />
        </g>
        <g
   transform="matrix(9.72343,0,0,9.72343,1568.04,1869.13)"
   id="g24"
   style="stroke-width:1.17796">
            <path
   d="M 0,53.822 H -14.639 V 0 H 0 c 10.573,0 18.694,2.339 24.363,7.015 5.669,4.677 8.504,11.285 8.504,19.824 0,8.564 -2.835,15.202 -8.504,19.914 C 18.694,51.466 10.573,53.822 0,53.822 m 0,-5.741 c 8.515,0 15.046,-1.854 19.591,-5.562 4.544,-3.707 6.817,-8.934 6.817,-15.68 0,-6.721 -2.273,-11.918 -6.817,-15.59 C 15.046,7.577 8.515,5.741 0,5.741 h -8.36 v 42.34 z"
   style="fill-rule:nonzero;stroke-width:1.17796"
   id="path22" />
        </g>
        <g
   transform="matrix(9.72343,0,0,9.72343,1946.93,2217.33)"
   id="g28"
   style="stroke-width:1.17796">
            <path
   d="m 0,-0.001 c 0,-3.588 0.808,-6.787 2.422,-9.598 1.615,-2.811 3.827,-5.023 6.638,-6.638 2.811,-1.615 6.01,-2.422 9.599,-2.422 3.588,0 6.787,0.807 9.597,2.422 2.811,1.615 5.024,3.827 6.639,6.638 1.615,2.811 2.422,6.01 2.422,9.598 0,3.589 -0.807,6.788 -2.422,9.598 -1.615,2.811 -3.828,5.024 -6.639,6.639 -2.81,1.615 -6.009,2.422 -9.597,2.422 -3.589,0 -6.788,-0.807 -9.599,-2.422 C 6.249,14.621 4.037,12.408 2.422,9.597 0.808,6.787 0,3.588 0,-0.001 m 6.1,0 c 0,2.536 0.544,4.808 1.633,6.818 1.088,2.009 2.577,3.587 4.467,4.736 1.889,1.149 4.042,1.722 6.459,1.722 2.415,0 4.569,-0.573 6.458,-1.722 1.89,-1.149 3.379,-2.727 4.467,-4.736 1.089,-2.01 1.633,-4.282 1.633,-6.818 0,-2.559 -0.544,-4.838 -1.633,-6.835 -1.088,-1.997 -2.577,-3.57 -4.467,-4.718 -1.889,-1.149 -4.043,-1.723 -6.458,-1.723 -2.417,0 -4.57,0.574 -6.459,1.723 -1.89,1.148 -3.379,2.721 -4.467,4.718 C 6.644,-4.839 6.1,-2.56 6.1,-0.001"
   style="fill-rule:nonzero;stroke-width:1.17796"
   id="path26" />
        </g>
        <g
   transform="matrix(9.72343,0,0,9.72343,2684.13,2087.54)"
   id="g32"
   style="stroke-width:1.17796">
            <path
   d="m 0,26.696 c -1.674,1.674 -3.648,2.978 -5.92,3.911 -2.273,0.933 -4.76,1.399 -7.463,1.399 -3.589,0 -6.788,-0.807 -9.598,-2.422 -2.811,-1.615 -5.024,-3.827 -6.639,-6.638 -1.614,-2.81 -2.422,-6.01 -2.422,-9.598 0,-3.588 0.808,-6.787 2.422,-9.598 1.615,-2.811 3.828,-5.023 6.639,-6.638 2.81,-1.615 6.009,-2.422 9.598,-2.422 2.703,0 5.19,0.466 7.463,1.399 2.272,0.933 4.246,2.225 5.92,3.875 L -4.126,4.091 C -5.251,2.823 -6.602,1.836 -8.18,1.13 -9.76,0.425 -11.494,0.072 -13.383,0.072 c -2.417,0 -4.57,0.574 -6.459,1.722 -1.89,1.149 -3.379,2.722 -4.467,4.719 -1.089,1.997 -1.633,4.276 -1.633,6.835 0,2.535 0.544,4.808 1.633,6.817 1.088,2.01 2.577,3.588 4.467,4.737 1.889,1.148 4.042,1.722 6.459,1.722 1.889,0 3.623,-0.359 5.203,-1.077 1.578,-0.717 2.929,-1.697 4.054,-2.942 z"
   style="fill-rule:nonzero;stroke-width:1.17796"
   id="path30" />
        </g>
        <g
   transform="matrix(0.965909,0,0,0.965909,70.6117,105.231)"
   id="g36"
   style="stroke-width:1.17796">
            <path
   d="m 1553.66,961.083 75.25,-75.258 -75.25,-75.246 56.61,-90.096 -90.1,-56.616 35.15,-100.446 -100.44,-35.142 11.91,-105.746 -105.74,-11.912 -11.92,-105.75 -105.74,11.912 -35.15,-100.445 -100.43,35.145 -56.63,-90.1 -90.107,56.617 -75.242,-75.246 -75.242,75.25 -90.104,-56.612 -56.612,90.096 -100.442,-35.15 -35.142,100.441 -105.75,-11.916 -11.912,105.741 -105.742,11.913 11.917,105.741 -100.454,35.15 35.145,100.438 -90.1,56.612 56.621,90.117 -75.258,75.25 75.25,75.258 -56.613,90.107 90.1,56.61 -35.145,100.44 100.45,35.15 -11.913,105.73 105.742,11.92 11.912,105.74 105.75,-11.91 35.142,100.43 100.437,-35.13 56.617,90.1 90.096,-56.62 75.25,74.55 75.25,-74.53 90.099,56.61 56.61,-90.11 100.45,35.15 35.14,-100.44 105.75,11.91 11.91,-105.75 105.75,-11.91 -11.92,-105.74 100.45,-35.15 -35.15,-100.45 90.1,-56.61 z"
   style="fill:#b51f08;fill-rule:nonzero;stroke-width:1.17796"
   id="path34" />
        </g>
        <g
   transform="matrix(0.965909,0,0,0.965909,70.6117,105.231)"
   id="g40"
   style="stroke-width:1.17796">
            <path
   d="m 1401.3,1004.78 c 0,-145.437 -117.9,-263.341 -263.34,-263.341 -72.24,0 -137.68,29.112 -185.252,76.225 l -0.033,-0.034 -67.096,67.1 -54.862,-54.862 C 782.45,774.801 711.646,739.989 632.675,739.989 c -145.442,0 -263.342,117.904 -263.342,263.341 0,76 32.23,144.43 83.721,192.49 l 432.779,432.55 423.217,-423.49 c 52.88,-49.77 92.25,-120 92.25,-200.1"
   style="fill:#fdd49a;fill-rule:nonzero;stroke-width:1.17796"
   id="path38" />
        </g>
        <g
   transform="matrix(0.965909,0,0,0.965909,70.6117,105.231)"
   id="g44"
   style="stroke-width:1.17796">
            <path
   d="M 885.579,884.73 830.717,829.868 C 782.45,774.801 711.646,739.989 632.675,739.989 c -145.442,0 -263.342,117.904 -263.342,263.341 0,76 32.23,144.43 83.721,192.49 l 432.779,432.55"
   style="fill:url(#_Linear1);fill-rule:nonzero;stroke-width:1.17796"
   id="path42" />
        </g>
        <g
   transform="matrix(0.965909,0,0,0.965909,70.6117,105.231)"
   id="g48"
   style="stroke-width:1.17796">
            <path
   d="M 885.833,1628.37 885.579,884.73"
   style="fill:none;stroke-width:1.17796"
   id="path46" />
        </g>
        <g
   transform="matrix(0.965909,0,0,0.965909,70.6117,105.231)"
   id="g52"
   style="stroke-width:1.17796">
            <path
   d="m 961.011,1553.59 c -19.279,-19.35 -45.917,-31.31 -75.325,-31.31 -29.417,0 -56.046,11.96 -75.329,31.31 0.308,41.34 33.908,74.76 75.325,74.76 41.416,0 75.02,-33.43 75.329,-74.76"
   style="fill:#010007;fill-rule:nonzero;stroke-width:1.17796"
   id="path50" />
        </g>
        <g
   transform="matrix(0.965909,0,0,0.965909,70.6117,105.231)"
   id="g56"
   style="stroke-width:1.17796">
            <path
   d="m 797.707,1098.22 c 0,31.8 -25.767,57.57 -57.571,57.57 -31.787,0 -57.558,-25.77 -57.558,-57.57 0,-31.8 25.771,-57.57 57.558,-57.57 31.804,0 57.571,25.77 57.571,57.57"
   style="fill:#010007;fill-rule:nonzero;stroke-width:1.17796"
   id="path54" />
        </g>
        <g
   transform="matrix(0.965909,0,0,0.965909,70.6117,105.231)"
   id="g60"
   style="stroke-width:1.17796">
            <path
   d="m 777.962,1089.59 c 0,8.82 -7.146,15.94 -15.95,15.94 -8.808,0 -15.958,-7.12 -15.958,-15.94 0,-8.81 7.15,-15.96 15.958,-15.96 8.804,0 15.95,7.15 15.95,15.96"
   style="fill:#fffffa;fill-rule:nonzero;stroke-width:1.17796"
   id="path58" />
        </g>
        <g
   transform="matrix(0.965909,0,0,0.965909,70.6117,105.231)"
   id="g64"
   style="stroke-width:1.17796">
            <path
   d="m 1089.65,1098.22 c 0,31.8 -25.77,57.57 -57.57,57.57 -31.79,0 -57.567,-25.77 -57.567,-57.57 0,-31.8 25.777,-57.57 57.567,-57.57 31.8,0 57.57,25.77 57.57,57.57"
   style="fill:#010007;fill-rule:nonzero;stroke-width:1.17796"
   id="path62" />
        </g>
        <g
   transform="matrix(0.965909,0,0,0.965909,70.6117,105.231)"
   id="g68"
   style="stroke-width:1.17796">
            <path
   d="m 1069.9,1089.59 c 0,8.82 -7.15,15.94 -15.95,15.94 -8.81,0 -15.96,-7.12 -15.96,-15.94 0,-8.81 7.15,-15.96 15.96,-15.96 8.8,0 15.95,7.15 15.95,15.96"
   style="fill:#fffffa;fill-rule:nonzero;stroke-width:1.17796"
   id="path66" />
        </g>
    </g>
    <defs
   id="defs77">
        <linearGradient
   id="_Linear1"
   x1="0"
   y1="0"
   x2="1"
   y2="0"
   gradientUnits="userSpaceOnUse"
   gradientTransform="matrix(200,-420,420,200,660,1340)"><stop
     offset="0"
     style="stop-color:rgb(253,212,154);stop-opacity:1"
     id="stop72" /><stop
     offset="1"
     style="stop-color:rgb(220,160,85);stop-opacity:1"
     id="stop74" /></linearGradient>
    </defs>
</svg>
