<svg clip-rule="evenodd" fill-rule="evenodd" height="997.05182" stroke-linejoin="round" stroke-miterlimit="2" viewBox="0 0 1508.7396 997.05182" width="1508.7396" xmlns="http://www.w3.org/2000/svg" xmlns:xlink="http://www.w3.org/1999/xlink"><linearGradient id="a" gradientTransform="matrix(200 -420 420 200 660 1340)" gradientUnits="userSpaceOnUse" x1="0" x2="1" y1="0" y2="0"><stop offset="0" stop-color="#fdd49a"/><stop offset="1" stop-color="#dca055"/></linearGradient><g stroke-width="1.17796"><g fill-rule="nonzero"><path d="m0-53.822v24.4h-30.678v-24.4h-6.28v53.822h6.28v-23.681h30.678v23.681h6.278v-53.822z" transform="matrix(3.53216235209 0 0 3.53216235209 244.505962794 855.83903551)"/><path d="m0-.072v2.404h-30.427c.598 3.181 2.135 5.795 4.611 7.84 2.475 2.045 5.459 3.068 8.951 3.068 1.939 0 3.984-.377 6.137-1.13 2.152-.754 4.113-1.968 5.884-3.642l3.48 4.449c-2.607 2.177-5.209 3.672-7.804 4.485-2.596.813-5.101 1.22-7.517 1.22-3.875 0-7.32-.807-10.334-2.422-3.013-1.615-5.376-3.844-7.086-6.692-1.71-2.846-2.566-6.087-2.566-9.723 0-3.541.802-6.704 2.405-9.491 1.602-2.786 3.803-4.981 6.602-6.585 2.799-1.602 5.967-2.403 9.508-2.403s6.674.801 9.401 2.403c2.727 1.604 4.868 3.804 6.422 6.603 1.555 2.798 2.333 6.004 2.333 9.616m-30.499-2.62h24.327c-.526-3.133-1.878-5.686-4.054-7.66-2.177-1.974-4.832-2.96-7.965-2.96-3.182 0-5.897.999-8.145 2.996-2.249 1.997-3.637 4.539-4.163 7.624" transform="matrix(3.53216235209 0 0 3.53216235209 427.8938030727 792.59494721)"/><path d="m0-20.093c2.631 0 5.071.479 7.32 1.436 2.248.957 4.174 2.284 5.776 3.982v-22.641h5.921v53.822h-5.346l-.323-4.988c-1.604 1.771-3.553 3.164-5.849 4.181-2.296 1.016-4.796 1.524-7.499 1.524-3.469 0-6.573-.807-9.312-2.421-2.739-1.615-4.892-3.828-6.458-6.639-1.567-2.81-2.35-6.009-2.35-9.598 0-3.588.783-6.787 2.35-9.598 1.566-2.811 3.719-5.023 6.458-6.638s5.843-2.422 9.312-2.422m-12.021 18.658c0 2.536.544 4.808 1.634 6.817 1.087 2.01 2.576 3.588 4.467 4.737 1.889 1.148 4.042 1.722 6.458 1.722s4.569-.574 6.458-1.722c1.89-1.149 3.379-2.727 4.468-4.737 1.088-2.009 1.632-4.281 1.632-6.817 0-2.559-.544-4.838-1.632-6.835-1.089-1.997-2.578-3.57-4.468-4.718-1.889-1.149-4.042-1.723-6.458-1.723s-4.569.574-6.458 1.723c-1.891 1.148-3.38 2.721-4.467 4.718-1.09 1.997-1.634 4.276-1.634 6.835" transform="matrix(3.53216235209 0 0 3.53216235209 514.711153558 797.53532401)"/><path d="m0 19.376c-3.469 0-6.573-.807-9.312-2.422s-4.892-3.827-6.458-6.638c-1.567-2.81-2.35-6.01-2.35-9.599 0-3.588.783-6.786 2.35-9.597 1.566-2.811 3.719-5.024 6.458-6.639 2.739-1.614 5.843-2.421 9.312-2.421 2.702 0 5.203.508 7.499 1.524 2.296 1.018 4.245 2.41 5.848 4.181l.324-4.988h5.346v32.364c0 4.426-.802 8.301-2.404 11.627-1.603 3.324-3.965 5.914-7.086 7.767-3.123 1.854-6.968 2.781-11.536 2.781-2.512 0-4.869-.364-7.069-1.094-2.201-.73-4.187-1.752-5.956-3.068l2.941-4.951c1.34 1.171 2.872 2.086 4.594 2.744s3.588.987 5.597.987c5.095 0 8.868-1.466 11.321-4.395 2.451-2.931 3.677-6.836 3.677-11.715v-1.866c-1.602 1.699-3.529 3.026-5.776 3.983-2.249.956-4.69 1.435-7.32 1.435m-12.021-18.659c0 2.536.544 4.809 1.634 6.818 1.087 2.009 2.576 3.588 4.466 4.736 1.89 1.149 4.043 1.723 6.459 1.723s4.569-.574 6.458-1.723c1.89-1.148 3.379-2.727 4.468-4.736 1.088-2.009 1.632-4.282 1.632-6.818 0-2.558-.544-4.837-1.632-6.835-1.089-1.996-2.578-3.569-4.468-4.718-1.889-1.148-4.042-1.722-6.458-1.722s-4.569.574-6.459 1.722c-1.89 1.149-3.379 2.722-4.466 4.718-1.09 1.998-1.634 4.277-1.634 6.835" transform="matrix(3.53216235209 0 0 3.53216235209 677.569221718 789.93222942)"/><path d="m0-.072v2.404h-30.427c.598 3.181 2.135 5.795 4.611 7.84s5.46 3.068 8.952 3.068c1.938 0 3.983-.377 6.136-1.13 2.153-.754 4.113-1.968 5.884-3.642l3.48 4.449c-2.607 2.177-5.209 3.672-7.803 4.485-2.596.813-5.101 1.22-7.518 1.22-3.875 0-7.319-.807-10.333-2.422s-5.377-3.844-7.087-6.692c-1.71-2.846-2.566-6.087-2.566-9.723 0-3.541.802-6.704 2.405-9.491 1.602-2.786 3.803-4.981 6.602-6.585 2.799-1.602 5.968-2.403 9.508-2.403 3.541 0 6.674.801 9.401 2.403 2.727 1.604 4.868 3.804 6.422 6.603 1.555 2.798 2.333 6.004 2.333 9.616m-30.499-2.62h24.327c-.526-3.133-1.878-5.686-4.054-7.66-2.177-1.974-4.832-2.96-7.965-2.96-3.182 0-5.897.999-8.145 2.996-2.249 1.997-3.637 4.539-4.163 7.624" transform="matrix(3.53216235209 0 0 3.53216235209 905.95049024 792.59494721)"/><path d="m0 53.822h-14.639v-53.822h14.639c10.573 0 18.694 2.339 24.363 7.015 5.669 4.677 8.504 11.285 8.504 19.824 0 8.564-2.835 15.202-8.504 19.914-5.669 4.713-13.79 7.069-24.363 7.069m0-5.741c8.515 0 15.046-1.854 19.591-5.562 4.544-3.707 6.817-8.934 6.817-15.68 0-6.721-2.273-11.918-6.817-15.59-4.545-3.672-11.076-5.508-19.591-5.508h-8.36v42.34z" transform="matrix(3.53216235209 0 0 3.53216235209 989.34114452 665.98326119)"/><path d="m0-.001c0-3.588.808-6.787 2.422-9.598 1.615-2.811 3.827-5.023 6.638-6.638s6.01-2.422 9.599-2.422c3.588 0 6.787.807 9.597 2.422 2.811 1.615 5.024 3.827 6.639 6.638s2.422 6.01 2.422 9.598c0 3.589-.807 6.788-2.422 9.598-1.615 2.811-3.828 5.024-6.639 6.639-2.81 1.615-6.009 2.422-9.597 2.422-3.589 0-6.788-.807-9.599-2.422-2.811-1.615-5.023-3.828-6.638-6.639-1.614-2.81-2.422-6.009-2.422-9.598m6.1 0c0 2.536.544 4.808 1.633 6.818 1.088 2.009 2.577 3.587 4.467 4.736 1.889 1.149 4.042 1.722 6.459 1.722 2.415 0 4.569-.573 6.458-1.722 1.89-1.149 3.379-2.727 4.467-4.736 1.089-2.01 1.633-4.282 1.633-6.818 0-2.559-.544-4.838-1.633-6.835-1.088-1.997-2.577-3.57-4.467-4.718-1.889-1.149-4.043-1.723-6.458-1.723-2.417 0-4.57.574-6.459 1.723-1.89 1.148-3.379 2.721-4.467 4.718-1.089 1.997-1.633 4.276-1.633 6.835" transform="matrix(3.53216235209 0 0 3.53216235209 1126.97786259 792.47143779)"/><path d="m0 26.696c-1.674 1.674-3.648 2.978-5.92 3.911-2.273.933-4.76 1.399-7.463 1.399-3.589 0-6.788-.807-9.598-2.422-2.811-1.615-5.024-3.827-6.639-6.638-1.614-2.81-2.422-6.01-2.422-9.598s.808-6.787 2.422-9.598c1.615-2.811 3.828-5.023 6.639-6.638 2.81-1.615 6.009-2.422 9.598-2.422 2.703 0 5.19.466 7.463 1.399 2.272.933 4.246 2.225 5.92 3.875l-4.126 4.127c-1.125-1.268-2.476-2.255-4.054-2.961-1.58-.705-3.314-1.058-5.203-1.058-2.417 0-4.57.574-6.459 1.722-1.89 1.149-3.379 2.722-4.467 4.719-1.089 1.997-1.633 4.276-1.633 6.835 0 2.535.544 4.808 1.633 6.817 1.088 2.01 2.577 3.588 4.467 4.737 1.889 1.148 4.042 1.722 6.459 1.722 1.889 0 3.623-.359 5.203-1.077 1.578-.717 2.929-1.697 4.054-2.942z" transform="matrix(3.53216235209 0 0 3.53216235209 1394.77534619 745.32353302)"/><path d="m1553.66 961.083 75.25-75.258-75.25-75.246 56.61-90.096-90.1-56.616 35.15-100.446-100.44-35.142 11.91-105.746-105.74-11.912-11.92-105.75-105.74 11.912-35.15-100.445-100.43 35.145-56.63-90.1-90.107 56.617-75.242-75.246-75.242 75.25-90.104-56.612-56.612 90.096-100.442-35.15-35.142 100.441-105.75-11.916-11.912 105.741-105.742 11.913 11.917 105.741-100.454 35.15 35.145 100.438-90.1 56.612 56.621 90.117-75.258 75.25 75.25 75.258-56.613 90.107 90.1 56.61-35.145 100.44 100.45 35.15-11.913 105.73 105.742 11.92 11.912 105.74 105.75-11.91 35.142 100.43 100.437-35.13 56.617 90.1 90.096-56.62 75.25 74.55 75.25-74.53 90.099 56.61 56.61-90.11 100.45 35.15 35.14-100.44 105.75 11.91 11.91-105.75 105.75-11.91-11.92-105.74 100.45-35.15-35.15-100.45 90.1-56.61z" fill="#b51f08" transform="matrix(.35087900107 0 0 .35087900107 445.3808479771 25.224018753)"/><path d="m1401.3 1004.78c0-145.437-117.9-263.341-263.34-263.341-72.24 0-137.68 29.112-185.252 76.225l-.033-.034-67.096 67.1-54.862-54.862c-48.267-55.067-119.071-89.879-198.042-89.879-145.442 0-263.342 117.904-263.342 263.341 0 76 32.23 144.43 83.721 192.49l432.779 432.55 423.217-423.49c52.88-49.77 92.25-120 92.25-200.1" fill="#fdd49a" transform="matrix(.35087900107 0 0 .35087900107 445.3808479771 25.224018753)"/><path d="m885.579 884.73-54.862-54.862c-48.267-55.067-119.071-89.879-198.042-89.879-145.442 0-263.342 117.904-263.342 263.341 0 76 32.23 144.43 83.721 192.49l432.779 432.55" fill="url(#a)" transform="matrix(.35087900107 0 0 .35087900107 445.3808479771 25.224018753)"/></g><path d="m885.833 1628.37-.254-743.64" fill="none" transform="matrix(.35087900107 0 0 .35087900107 445.3808479771 25.224018753)"/><path d="m961.011 1553.59c-19.279-19.35-45.917-31.31-75.325-31.31-29.417 0-56.046 11.96-75.329 31.31.308 41.34 33.908 74.76 75.325 74.76 41.416 0 75.02-33.43 75.329-74.76" fill="#010007" fill-rule="nonzero" transform="matrix(.35087900107 0 0 .35087900107 445.3808479771 25.224018753)"/><path d="m797.707 1098.22c0 31.8-25.767 57.57-57.571 57.57-31.787 0-57.558-25.77-57.558-57.57s25.771-57.57 57.558-57.57c31.804 0 57.571 25.77 57.571 57.57" fill="#010007" fill-rule="nonzero" transform="matrix(.35087900107 0 0 .35087900107 445.3808479771 25.224018753)"/><path d="m777.962 1089.59c0 8.82-7.146 15.94-15.95 15.94-8.808 0-15.958-7.12-15.958-15.94 0-8.81 7.15-15.96 15.958-15.96 8.804 0 15.95 7.15 15.95 15.96" fill="#fffffa" fill-rule="nonzero" transform="matrix(.35087900107 0 0 .35087900107 445.3808479771 25.224018753)"/><path d="m1089.65 1098.22c0 31.8-25.77 57.57-57.57 57.57-31.79 0-57.567-25.77-57.567-57.57s25.777-57.57 57.567-57.57c31.8 0 57.57 25.77 57.57 57.57" fill="#010007" fill-rule="nonzero" transform="matrix(.35087900107 0 0 .35087900107 445.3808479771 25.224018753)"/><path d="m1069.9 1089.59c0 8.82-7.15 15.94-15.95 15.94-8.81 0-15.96-7.12-15.96-15.94 0-8.81 7.15-15.96 15.96-15.96 8.8 0 15.95 7.15 15.95 15.96" fill="#fffffa" fill-rule="nonzero" transform="matrix(.35087900107 0 0 .35087900107 445.3808479771 25.224018753)"/></g></svg>