<?xml version="1.0" encoding="UTF-8" standalone="no"?>
<!DOCTYPE svg PUBLIC "-//W3C//DTD SVG 1.1//EN" "http://www.w3.org/Graphics/SVG/1.1/DTD/svg11.dtd">
<svg width="100%" height="100%" viewBox="0 0 1772 886" version="1.1" xmlns="http://www.w3.org/2000/svg" xmlns:xlink="http://www.w3.org/1999/xlink" xml:space="preserve" xmlns:serif="http://www.serif.com/" style="fill-rule:evenodd;clip-rule:evenodd;stroke-linejoin:round;stroke-miterlimit:2;">
    <g transform="matrix(0.427908,0,0,0.427908,510.179,-144.086)">
        <g transform="matrix(7.67678,0,0,7.67678,141.57,1242.64)">
            <path d="M0,50.919L0,0L5.941,0L5.941,23.084L34.964,23.084L34.964,0L40.904,0L40.904,50.919L34.964,50.919L34.964,28.515L5.941,28.515L5.941,50.919L0,50.919Z" style="fill-rule:nonzero;"/>
        </g>
        <g transform="matrix(7.67678,0,0,7.67678,787.055,1503.5)">
            <path d="M0,-0.068L0,2.206L-28.786,2.206C-28.22,5.216 -26.766,7.688 -24.424,9.624C-22.082,11.558 -19.259,12.526 -15.955,12.526C-14.121,12.526 -12.187,12.169 -10.149,11.457C-8.113,10.744 -6.258,9.595 -4.583,8.011L-1.29,12.22C-3.757,14.28 -6.218,15.694 -8.673,16.463C-11.129,17.233 -13.499,17.618 -15.785,17.618C-15.785,17.618 -22.71,16.854 -25.561,15.327C-28.413,13.799 -30.648,11.689 -32.265,8.996C-33.884,6.303 -34.693,3.237 -34.693,-0.203C-34.693,-3.553 -33.934,-6.546 -32.418,-9.182C-30.902,-11.818 -28.82,-13.895 -26.172,-15.412C-23.524,-16.927 -20.526,-17.686 -17.177,-17.686C-13.827,-17.686 -10.863,-16.927 -8.283,-15.412C-5.703,-13.895 -3.678,-11.813 -2.207,-9.165C-0.736,-6.518 0,-3.485 0,-0.068M-28.854,-2.546L-5.839,-2.546C-6.337,-5.511 -7.616,-7.926 -9.675,-9.793C-11.734,-11.661 -14.246,-12.594 -17.21,-12.594C-20.22,-12.594 -22.789,-11.649 -24.916,-9.76C-27.043,-7.87 -28.356,-5.465 -28.854,-2.546" style="fill-rule:nonzero;"/>
        </g>
        <g transform="matrix(7.67678,0,0,7.67678,965.564,1513.66)">
            <path d="M0,-19.01C2.489,-19.01 4.797,-18.557 6.925,-17.652C9.052,-16.746 10.874,-15.491 12.39,-13.885L12.39,-35.304L17.991,-35.304L17.991,15.615L12.934,15.615L12.628,10.896C11.111,12.571 9.267,13.889 7.095,14.851C4.922,15.813 2.557,16.294 0,16.294C-3.281,16.294 -6.218,15.53 -8.809,14.002C-11.4,12.474 -13.438,10.381 -14.919,7.722C-16.402,5.064 -17.143,2.037 -17.143,-1.359C-17.143,-4.753 -16.402,-7.779 -14.919,-10.439C-13.438,-13.098 -11.4,-15.191 -8.809,-16.719C-6.218,-18.247 -3.281,-19.01 0,-19.01M-11.372,-1.359C-11.372,1.04 -10.857,3.19 -9.827,5.091C-8.798,6.992 -7.389,8.486 -5.601,9.572C-3.814,10.659 -1.777,11.202 0.509,11.202C2.795,11.202 4.832,10.659 6.619,9.572C8.407,8.486 9.816,6.992 10.846,5.091C11.875,3.19 12.39,1.04 12.39,-1.359C12.39,-3.779 11.875,-5.935 10.846,-7.825C9.816,-9.714 8.407,-11.202 6.619,-12.289C4.832,-13.375 2.795,-13.918 0.509,-13.918C-1.777,-13.918 -3.814,-13.375 -5.601,-12.289C-7.389,-11.202 -8.798,-9.714 -9.827,-7.825C-10.857,-5.935 -11.372,-3.779 -11.372,-1.359" style="fill-rule:nonzero;"/>
        </g>
        <g transform="matrix(7.67678,0,0,7.67678,1300.43,1498.01)">
            <path d="M0,18.332C-3.281,18.332 -6.218,17.569 -8.809,16.041C-11.4,14.513 -13.438,12.42 -14.919,9.761C-16.402,7.102 -17.143,4.075 -17.143,0.68C-17.143,-2.715 -16.402,-5.741 -14.919,-8.4C-13.438,-11.059 -11.4,-13.152 -8.809,-14.68C-6.218,-16.208 -3.281,-16.972 0,-16.972C2.557,-16.972 4.922,-16.491 7.094,-15.529C9.267,-14.567 11.111,-13.249 12.627,-11.574L12.933,-16.293L17.991,-16.293L17.991,14.326C17.991,18.513 17.233,22.179 15.717,25.325C14.2,28.47 11.966,30.92 9.013,32.674C6.059,34.427 2.421,35.304 -1.901,35.304C-4.278,35.304 -6.507,34.96 -8.589,34.269C-10.671,33.578 -12.549,32.612 -14.223,31.367L-11.44,26.683C-10.173,27.791 -8.724,28.656 -7.094,29.279C-5.465,29.901 -3.7,30.212 -1.799,30.212C3.021,30.212 6.59,28.826 8.911,26.055C11.23,23.282 12.39,19.588 12.39,14.971L12.39,13.207C10.874,14.814 9.052,16.069 6.925,16.974C4.797,17.879 2.489,18.332 0,18.332M-11.372,0.68C-11.372,3.079 -10.858,5.229 -9.827,7.13C-8.798,9.031 -7.389,10.524 -5.601,11.611C-3.814,12.697 -1.777,13.24 0.509,13.24C2.794,13.24 4.832,12.697 6.619,11.611C8.407,10.524 9.816,9.031 10.845,7.13C11.875,5.229 12.39,3.079 12.39,0.68C12.39,-1.741 11.875,-3.897 10.845,-5.787C9.816,-7.675 8.407,-9.164 6.619,-10.25C4.832,-11.337 2.794,-11.88 0.509,-11.88C-1.777,-11.88 -3.814,-11.337 -5.601,-10.25C-7.389,-9.164 -8.798,-7.675 -9.827,-5.787C-10.858,-3.897 -11.372,-1.741 -11.372,0.68" style="fill-rule:nonzero;"/>
        </g>
        <g transform="matrix(7.67678,0,0,7.67678,1770.01,1503.5)">
            <path d="M0,-0.068L0,2.206L-28.786,2.206C-28.22,5.216 -26.766,7.688 -24.424,9.624C-22.082,11.558 -19.259,12.526 -15.955,12.526C-14.121,12.526 -12.186,12.169 -10.149,11.457C-8.113,10.744 -6.258,9.595 -4.583,8.011L-1.29,12.22C-3.757,14.28 -6.218,15.694 -8.673,16.463C-11.129,17.233 -13.499,17.618 -15.785,17.618C-19.451,17.618 -22.71,16.854 -25.561,15.327C-28.412,13.799 -30.648,11.689 -32.265,8.996C-33.884,6.303 -34.693,3.237 -34.693,-0.203C-34.693,-3.553 -33.934,-6.546 -32.418,-9.182C-30.902,-11.818 -28.82,-13.895 -26.172,-15.412C-23.524,-16.927 -20.526,-17.686 -17.177,-17.686C-13.827,-17.686 -10.863,-16.927 -8.283,-15.412C-5.703,-13.895 -3.678,-11.813 -2.207,-9.165C-0.736,-6.518 0,-3.485 0,-0.068M-28.854,-2.546L-5.839,-2.546C-6.337,-5.511 -7.616,-7.926 -9.675,-9.793C-11.734,-11.661 -14.246,-12.594 -17.21,-12.594C-20.22,-12.594 -22.789,-11.649 -24.916,-9.76C-27.043,-7.87 -28.356,-5.465 -28.854,-2.546" style="fill-rule:nonzero;"/>
        </g>
        <g transform="matrix(7.67678,0,0,7.67678,1941.48,1243.16)">
            <path d="M0,50.919L-13.85,50.919L-13.85,0L0,0C10.003,0 17.686,2.213 23.049,6.637C28.412,11.061 31.094,17.313 31.094,25.392C31.094,33.493 28.412,39.774 23.049,44.231C17.686,48.69 10.003,50.919 0,50.919M0,45.488C8.056,45.488 14.235,43.734 18.535,40.226C22.834,36.719 24.984,31.773 24.984,25.392C24.984,19.033 22.834,14.117 18.535,10.642C14.235,7.169 8.056,5.432 0,5.432L-7.909,5.432L-7.909,45.488L0,45.488Z" style="fill-rule:nonzero;"/>
        </g>
        <g transform="matrix(7.67678,0,0,7.67678,2229.92,1503.24)">
            <path d="M0,-0.001C0,-3.395 0.764,-6.422 2.291,-9.081C3.819,-11.74 5.912,-13.833 8.572,-15.361C11.231,-16.889 14.257,-17.652 17.652,-17.652C21.046,-17.652 24.073,-16.889 26.732,-15.361C29.391,-13.833 31.484,-11.74 33.012,-9.081C34.54,-6.422 35.303,-3.395 35.303,-0.001C35.303,3.394 34.54,6.421 33.012,9.08C31.484,11.739 29.391,13.832 26.732,15.36C24.073,16.888 21.046,17.651 17.652,17.651C14.257,17.651 11.231,16.888 8.572,15.36C5.912,13.832 3.819,11.739 2.291,9.08C0.764,6.421 0,3.394 0,-0.001M5.771,-0.001C5.771,2.398 6.285,4.548 7.316,6.449C8.345,8.35 9.754,9.843 11.542,10.93C13.329,12.016 15.366,12.559 17.652,12.559C19.937,12.559 21.975,12.016 23.762,10.93C25.55,9.843 26.959,8.35 27.989,6.449C29.018,4.548 29.533,2.398 29.533,-0.001C29.533,-2.422 29.018,-4.578 27.989,-6.467C26.959,-8.356 25.55,-9.844 23.762,-10.931C21.975,-12.018 19.937,-12.56 17.652,-12.56C15.366,-12.56 13.329,-12.018 11.542,-10.931C9.754,-9.844 8.345,-8.356 7.316,-6.467C6.285,-4.578 5.771,-2.422 5.771,-0.001" style="fill-rule:nonzero;"/>
        </g>
        <g transform="matrix(7.67678,0,0,7.67678,2780.55,1406.29)">
            <path d="M0,25.256C-1.584,26.84 -3.451,28.073 -5.601,28.956C-7.751,29.839 -10.104,30.28 -12.661,30.28C-16.056,30.28 -19.083,29.516 -21.742,27.988C-24.401,26.461 -26.494,24.368 -28.022,21.708C-29.549,19.05 -30.313,16.023 -30.313,12.628C-30.313,9.233 -29.549,6.207 -28.022,3.548C-26.494,0.888 -24.401,-1.205 -21.742,-2.732C-19.083,-4.26 -16.056,-5.024 -12.661,-5.024C-10.104,-5.024 -7.751,-4.583 -5.601,-3.7C-3.451,-2.817 -1.584,-1.595 0,-0.034L-3.904,3.87C-4.968,2.67 -6.246,1.737 -7.739,1.069C-9.233,0.402 -10.874,0.068 -12.661,0.068C-14.947,0.068 -16.984,0.611 -18.772,1.698C-20.56,2.784 -21.969,4.272 -22.998,6.161C-24.028,8.051 -24.542,10.207 -24.542,12.628C-24.542,15.027 -24.028,17.177 -22.998,19.078C-21.969,20.978 -20.56,22.472 -18.772,23.558C-16.984,24.645 -14.947,25.188 -12.661,25.188C-10.874,25.188 -9.233,24.848 -7.739,24.169C-6.246,23.49 -4.968,22.563 -3.904,21.386L0,25.256Z" style="fill-rule:nonzero;"/>
        </g>
        <g transform="matrix(0.651412,0,0,0.651412,-1168.41,865.109)">
            <path d="M1553.66,961.083L1628.91,885.825L1553.66,810.579L1610.27,720.483L1520.17,663.867L1555.32,563.421L1454.88,528.279L1466.79,422.533L1361.05,410.621L1349.13,304.871L1243.39,316.783L1208.24,216.338L1107.81,251.483L1051.18,161.383L961.073,218L885.831,142.754L810.589,218.004L720.485,161.392L663.873,251.488L563.431,216.338L528.289,316.779L422.539,304.863L410.627,410.604L304.885,422.517L316.802,528.258L216.348,563.408L251.493,663.846L161.393,720.458L218.014,810.575L142.756,885.825L218.006,961.083L161.393,1051.19L251.493,1107.8L216.348,1208.24L316.798,1243.39L304.885,1349.12L410.627,1361.04L422.539,1466.78L528.289,1454.87L563.431,1555.3L663.868,1520.17L720.485,1610.27L810.581,1553.65L885.831,1628.2L961.081,1553.67L1051.18,1610.28L1107.79,1520.17L1208.24,1555.32L1243.38,1454.88L1349.13,1466.79L1361.04,1361.04L1466.79,1349.13L1454.87,1243.39L1555.32,1208.24L1520.17,1107.79L1610.27,1051.18L1553.66,961.083Z" style="fill:rgb(181,31,8);fill-rule:nonzero;"/>
        </g>
        <g transform="matrix(0.651412,0,0,0.651412,-1168.41,865.109)">
            <path d="M1401.3,1004.78C1401.3,859.343 1283.4,741.439 1137.96,741.439C1065.72,741.439 1000.28,770.551 952.708,817.664L952.675,817.63L885.579,884.73L830.717,829.868C782.45,774.801 711.646,739.989 632.675,739.989C487.233,739.989 369.333,857.893 369.333,1003.33C369.333,1079.33 401.563,1147.76 453.054,1195.82L885.833,1628.37L1309.05,1204.88C1361.93,1155.11 1401.3,1084.88 1401.3,1004.78" style="fill:rgb(253,212,154);fill-rule:nonzero;"/>
        </g>
        <g transform="matrix(0.651412,0,0,0.651412,-1168.41,865.109)">
            <path d="M885.579,884.73L830.717,829.868C782.45,774.801 711.646,739.989 632.675,739.989C487.233,739.989 369.333,857.893 369.333,1003.33C369.333,1079.33 401.563,1147.76 453.054,1195.82L885.833,1628.37" style="fill:url(#_Linear1);fill-rule:nonzero;"/>
        </g>
        <g transform="matrix(0.651412,0,0,0.651412,-1168.41,865.109)">
            <path d="M885.833,1628.37L885.579,884.73" style="fill:none;"/>
        </g>
        <g transform="matrix(0.651412,0,0,0.651412,-1168.41,865.109)">
            <path d="M961.011,1553.59C941.732,1534.24 915.094,1522.28 885.686,1522.28C856.269,1522.28 829.64,1534.24 810.357,1553.59C810.665,1594.93 844.265,1628.35 885.682,1628.35C927.098,1628.35 960.702,1594.92 961.011,1553.59" style="fill:rgb(1,0,7);fill-rule:nonzero;"/>
        </g>
        <g transform="matrix(0.651412,0,0,0.651412,-1168.41,865.109)">
            <path d="M797.707,1098.22C797.707,1130.02 771.94,1155.79 740.136,1155.79C708.349,1155.79 682.578,1130.02 682.578,1098.22C682.578,1066.42 708.349,1040.65 740.136,1040.65C771.94,1040.65 797.707,1066.42 797.707,1098.22" style="fill:rgb(1,0,7);fill-rule:nonzero;"/>
        </g>
        <g transform="matrix(0.651412,0,0,0.651412,-1168.41,865.109)">
            <path d="M777.962,1089.59C777.962,1098.41 770.816,1105.53 762.012,1105.53C753.204,1105.53 746.054,1098.41 746.054,1089.59C746.054,1080.78 753.204,1073.63 762.012,1073.63C770.816,1073.63 777.962,1080.78 777.962,1089.59" style="fill:rgb(255,255,250);fill-rule:nonzero;"/>
        </g>
        <g transform="matrix(0.651412,0,0,0.651412,-1168.41,865.109)">
            <path d="M1089.65,1098.22C1089.65,1130.02 1063.88,1155.79 1032.08,1155.79C1000.29,1155.79 974.513,1130.02 974.513,1098.22C974.513,1066.42 1000.29,1040.65 1032.08,1040.65C1063.88,1040.65 1089.65,1066.42 1089.65,1098.22" style="fill:rgb(1,0,7);fill-rule:nonzero;"/>
        </g>
        <g transform="matrix(0.651412,0,0,0.651412,-1168.41,865.109)">
            <path d="M1069.9,1089.59C1069.9,1098.41 1062.75,1105.53 1053.95,1105.53C1045.14,1105.53 1037.99,1098.41 1037.99,1089.59C1037.99,1080.78 1045.14,1073.63 1053.95,1073.63C1062.75,1073.63 1069.9,1080.78 1069.9,1089.59" style="fill:rgb(255,255,250);fill-rule:nonzero;"/>
        </g>
    </g>
    <defs>
        <linearGradient id="_Linear1" x1="0" y1="0" x2="1" y2="0" gradientUnits="userSpaceOnUse" gradientTransform="matrix(200,-420,420,200,660,1340)"><stop offset="0" style="stop-color:rgb(253,212,154);stop-opacity:1"/><stop offset="1" style="stop-color:rgb(220,160,85);stop-opacity:1"/></linearGradient>
    </defs>
</svg>
